<?xml version="1.0" encoding="utf-8"?>
<!-- Generator: Adobe Illustrator 27.5.0, SVG Export Plug-In . SVG Version: 6.00 Build 0)  -->
<svg version="1.1" id="Layer_1" xmlns="http://www.w3.org/2000/svg" xmlns:xlink="http://www.w3.org/1999/xlink" x="0px" y="0px"
	 viewBox="0 0 4000 2428" style="enable-background:new 0 0 4000 2428;" xml:space="preserve">
<g>
	<rect style="fill-rule:evenodd;clip-rule:evenodd;" width="4000" height="2428"/>
	<g>
		<defs>
			<path id="SVGID_1_" d="M3268.354,2428H1527.336c-329.301-399.377-203.261-1089.149,700.742-1368.309
				c543.09-167.717,1137.025-484.09,897.893-1029.246c-4.463-10.176-8.612-20.307-12.806-30.445H4000v2223.302
				C3798.589,2209.166,3570.598,2306.055,3268.354,2428"/>
		</defs>
		<clipPath id="SVGID_00000182528091346204605770000013151342261200075399_">
			<use xlink:href="#SVGID_1_"  style="overflow:visible;"/>
		</clipPath>
		
			<linearGradient id="SVGID_00000139290301019657588550000009853323373728853149_" gradientUnits="userSpaceOnUse" x1="1611.8279" y1="889.832" x2="3202.9368" y2="1412.3115">
			<stop  offset="0" style="stop-color:#1D1616"/>
			<stop  offset="1" style="stop-color:#000000"/>
		</linearGradient>
		
			<rect x="1198.036" style="clip-path:url(#SVGID_00000182528091346204605770000013151342261200075399_);fill:url(#SVGID_00000139290301019657588550000009853323373728853149_);" width="2801.964" height="2428"/>
	</g>
	<g>
		<defs>
			<path id="SVGID_00000147203745582989468930000015504638798938402461_" d="M3272.687,0H4000v1870.166
				c-251.029-17.631-556.941,194.514-1081.641,340.769c-922.923,257.255-1341.749-877.771-249.644-1215.018
				c408.035-126.01,854.272-363.708,674.607-773.296C3309.959,146.564,3286.738,71.898,3272.687,0"/>
		</defs>
		<clipPath id="SVGID_00000021083029508471088130000005938216398963707838_">
			<use xlink:href="#SVGID_00000147203745582989468930000015504638798938402461_"  style="overflow:visible;"/>
		</clipPath>
		
			<linearGradient id="SVGID_00000123402188751237355140000003934858062268284093_" gradientUnits="userSpaceOnUse" x1="2674.1323" y1="1180.6672" x2="3637.9614" y2="1631.6943">
			<stop  offset="0" style="stop-color:#6D2323"/>
			<stop  offset="1" style="stop-color:#1D1616"/>
		</linearGradient>
		
			<rect x="1576.61" style="clip-path:url(#SVGID_00000021083029508471088130000005938216398963707838_);fill:url(#SVGID_00000123402188751237355140000003934858062268284093_);" width="2423.39" height="2468.19"/>
	</g>
	<g>
		<defs>
			<path id="SVGID_00000161600422061934545250000005458205842412652465_" d="M3611.581,0h130.357
				C3820.291,12.88,3907.27,48.382,4000,111.262v1722.83c-206.094-141.358-425.068,61.47-888.311,190.595
				c-644.252,179.578-936.615-612.733-174.266-848.15c284.832-87.962,596.33-253.889,470.914-539.804
				C3270.723,323.012,3378.715,42.786,3611.581,0"/>
		</defs>
		<clipPath id="SVGID_00000008852337108393931900000000321688099842466995_">
			<use xlink:href="#SVGID_00000161600422061934545250000005458205842412652465_"  style="overflow:visible;"/>
		</clipPath>
		
			<linearGradient id="SVGID_00000021119937057533898550000014150204708471581863_" gradientUnits="userSpaceOnUse" x1="2596.6846" y1="971.8185" x2="3993.0073" y2="1342.5209">
			<stop  offset="0" style="stop-color:#A21D1D"/>
			<stop  offset="1" style="stop-color:#6D2323"/>
		</linearGradient>
		
			<rect x="2175.074" style="clip-path:url(#SVGID_00000008852337108393931900000000321688099842466995_);fill:url(#SVGID_00000021119937057533898550000014150204708471581863_);" width="1824.926" height="2204.265"/>
	</g>
	<g>
		<defs>
			<path id="SVGID_00000009551105801160138000000015490693994999566215_" d="M4000,400.052v1423.602
				c-191.902-222.54-365.166-25.251-795.167,94.608c-528.149,147.215-767.823-502.309-142.86-695.3
				c233.501-72.109,488.861-208.134,386.047-442.523C3273.991,383.702,3579.031,52.279,4000,400.052"/>
		</defs>
		<clipPath id="SVGID_00000119118209173811739220000017826581594364782499_">
			<use xlink:href="#SVGID_00000009551105801160138000000015490693994999566215_"  style="overflow:visible;"/>
		</clipPath>
		
			<linearGradient id="SVGID_00000023993007120031858680000012220737967192825263_" gradientUnits="userSpaceOnUse" x1="2861.481" y1="1015.65" x2="4239.2744" y2="1182.4716">
			<stop  offset="0" style="stop-color:#E4CFAB"/>
			<stop  offset="1" style="stop-color:#A21D1D"/>
		</linearGradient>
		
			<rect x="2437.01" y="52.279" style="clip-path:url(#SVGID_00000119118209173811739220000017826581594364782499_);fill:url(#SVGID_00000023993007120031858680000012220737967192825263_);" width="1562.99" height="2013.198"/>
	</g>
	<g>
		<defs>
			<path id="SVGID_00000110462424495781099450000018281371609210097816_" d="M4000,608.87v958.309
				c-123.004-139.713-241.257-13.282-524.287,60.369c-352.958,91.849-504.904-342.895-87.031-464.079
				c156.128-45.278,327.528-132.816,261.839-289.885C3542.309,614.831,3735.179,402.368,4000,608.87"/>
		</defs>
		<clipPath id="SVGID_00000033367103161868096000000003729898083809967495_">
			<use xlink:href="#SVGID_00000110462424495781099450000018281371609210097816_"  style="overflow:visible;"/>
		</clipPath>
		
			<linearGradient id="SVGID_00000139261435558312348120000004053580085915168682_" gradientUnits="userSpaceOnUse" x1="3490.7468" y1="1061.1658" x2="4306.3091" y2="1104.4324">
			<stop  offset="0" style="stop-color:#FDF8E0"/>
			<stop  offset="1" style="stop-color:#E4CFAB"/>
		</linearGradient>
		
			<rect x="2970.809" y="402.368" style="clip-path:url(#SVGID_00000033367103161868096000000003729898083809967495_);fill:url(#SVGID_00000139261435558312348120000004053580085915168682_);" width="1029.191" height="1317.028"/>
	</g>
</g>
</svg>
