<?xml version="1.0" encoding="utf-8"?>
<!-- Generator: Adobe Illustrator 27.5.0, SVG Export Plug-In . SVG Version: 6.00 Build 0)  -->
<svg version="1.1" xmlns="http://www.w3.org/2000/svg" xmlns:xlink="http://www.w3.org/1999/xlink" x="0px" y="0px"
	 viewBox="0 0 750 500" style="enable-background:new 0 0 750 500;" xml:space="preserve">
<g id="BACKGROUND">
	<rect style="fill:#F2F2F2;" width="750" height="500"/>
</g>
<g id="OBJECTS">
	<g>
		<defs>
			<rect id="SVGID_1_" width="750" height="500"/>
		</defs>
		<clipPath id="SVGID_00000044173039512324990880000009311522632030936241_">
			<use xlink:href="#SVGID_1_"  style="overflow:visible;"/>
		</clipPath>
		<g style="clip-path:url(#SVGID_00000044173039512324990880000009311522632030936241_);">
			<g>
				<path style="fill:none;stroke:#F25A3E;stroke-width:2;stroke-miterlimit:10;" d="M137.117,432.618
					c31.33,0,56.727,25.398,56.727,56.727c0,31.33-25.398,56.727-56.727,56.727"/>
				<path style="fill:none;stroke:#F25A3E;stroke-width:2;stroke-miterlimit:10;" d="M136.75,443.603
					c25.263,0,45.743,20.48,45.743,45.743c0,25.263-20.48,45.743-45.743,45.743"/>
				<path style="fill:none;stroke:#F25A3E;stroke-width:2;stroke-miterlimit:10;" d="M137.117,455.561
					c18.659,0,33.785,15.126,33.785,33.784s-15.126,33.785-33.785,33.785"/>
				<path style="fill:none;stroke:#F25A3E;stroke-width:2;stroke-miterlimit:10;" d="M137.117,467.627
					c11.995,0,21.719,9.724,21.719,21.718c0,11.995-9.724,21.719-21.719,21.719"/>
			</g>
			<g>
				
					<ellipse transform="matrix(0.9239 -0.3827 0.3827 0.9239 -129.9144 79.8462)" style="fill:#F25A3E;" cx="135.75" cy="366.485" rx="21.162" ry="21.162"/>
				<g>
					<rect x="68.407" y="345.327" style="fill:#F25A3E;" width="68.119" height="1.327"/>
					<rect x="68.407" y="349.391" style="fill:#F25A3E;" width="68.119" height="1.327"/>
					<rect x="68.407" y="353.455" style="fill:#F25A3E;" width="68.119" height="1.327"/>
					<rect x="68.407" y="357.519" style="fill:#F25A3E;" width="68.119" height="1.327"/>
					<rect x="68.407" y="361.584" style="fill:#F25A3E;" width="68.119" height="1.327"/>
					<rect x="68.407" y="365.648" style="fill:#F25A3E;" width="68.119" height="1.327"/>
					<rect x="68.407" y="369.712" style="fill:#F25A3E;" width="68.119" height="1.327"/>
					<rect x="68.407" y="373.776" style="fill:#F25A3E;" width="68.119" height="1.327"/>
					<rect x="68.407" y="377.841" style="fill:#F25A3E;" width="68.119" height="1.327"/>
					<rect x="68.407" y="381.905" style="fill:#F25A3E;" width="68.119" height="1.327"/>
					<rect x="68.407" y="385.969" style="fill:#F25A3E;" width="68.119" height="1.327"/>
				</g>
			</g>
			<circle style="fill:#F25A3E;" cx="82.104" cy="0" r="75.156"/>
			<g>
				<path style="fill:#F29587;" d="M50.136,308.026v75.72c0,17.485,14.174,31.659,31.659,31.659h25.148
					c4.576,0,8.286,3.71,8.286,8.286v82.231h23.631v-85.115c0-13.882-11.253-25.135-25.135-25.135H82.027
					c-6.714,0-12.157-5.443-12.157-12.157v-75.488H50.136z"/>
				<path style="fill:#F2F2F2;" d="M57.237,308.026v77.926c0,12.377,10.033,22.41,22.41,22.41h33.329
					c5.897,0,10.677,4.78,10.677,10.677v84.341h5.553v-87.008c0-7.491-6.072-13.564-13.563-13.564H80.185
					c-9.607,0-17.395-7.788-17.395-17.395v-77.388H57.237z"/>
			</g>
			<g>
				<path style="fill:#F29587;" d="M645.086,158.65v-6.202c0-29.539-23.946-53.485-53.485-53.485h-11.029
					c-5.959,0-10.789-4.83-10.789-10.789V-5.753h-27.338v91.976c0,19.645,15.925,35.57,35.57,35.57h13.401
					c17.033,0,30.841,13.808,30.841,30.841v5.625c0,28.196,22.858,51.054,51.054,51.054h185.246v-22.829H672.919
					C657.547,186.483,645.086,174.022,645.086,158.65z"/>
				<path style="fill:#F2F2F2;" d="M636.879,156.667v-1.977c0-27.337-22.161-49.497-49.497-49.497h-11.15
					c-9.385,0-16.992-7.608-16.992-16.992V-19.361h-6.424V88.498c0,12.768,10.351,23.119,23.119,23.119h11.406
					c23.812,0,43.115,19.303,43.115,43.115v2.961c0,23.912,19.385,43.297,43.297,43.297h129.325v-6.424H674.778
					C653.847,194.566,636.879,177.598,636.879,156.667z"/>
			</g>
			<circle style="fill:#F7C0B7;" cx="57.225" cy="292.216" r="45.483"/>
			
				<ellipse transform="matrix(0.3827 -0.9239 0.9239 0.3827 -225.6249 246.7594)" style="fill:none;stroke:#F25A3E;stroke-width:2;stroke-miterlimit:10;" cx="71.838" cy="292.216" rx="45.483" ry="45.483"/>
			<polygon style="fill:#FAD5CF;" points="49.477,292.216 -10.352,257.673 -10.352,326.758 			"/>
			<path style="fill:#F25A3E;" d="M16.04,272.911c-2.752,5.861-4.298,12.401-4.298,19.305c0,6.904,1.546,13.444,4.298,19.305
				l33.437-19.305L16.04,272.911z"/>
			<polygon style="fill:#F25A3E;" points="615.683,-36.86 710.707,71.354 674.381,-36.356 			"/>
			<polygon style="fill:#F7C0B7;" points="710.707,71.354 759.581,-23.839 674.381,-36.356 			"/>
			<g>
				<g>
					<path style="fill:#FAD5CF;" d="M707.854,460.185c0,0.746-0.604,1.35-1.35,1.35s-1.35-0.604-1.35-1.35
						c0-0.745,0.604-1.35,1.35-1.35S707.854,459.44,707.854,460.185z"/>
					<path style="fill:#FAD5CF;" d="M716.649,460.185c0,0.746-0.604,1.35-1.35,1.35c-0.746,0-1.35-0.604-1.35-1.35
						c0-0.745,0.604-1.35,1.35-1.35C716.045,458.836,716.649,459.44,716.649,460.185z"/>
					<path style="fill:#FAD5CF;" d="M725.444,460.185c0,0.746-0.604,1.35-1.35,1.35c-0.746,0-1.35-0.604-1.35-1.35
						c0-0.745,0.604-1.35,1.35-1.35C724.84,458.836,725.444,459.44,725.444,460.185z"/>
					<path style="fill:#FAD5CF;" d="M734.24,460.185c0,0.746-0.604,1.35-1.35,1.35c-0.745,0-1.35-0.604-1.35-1.35
						c0-0.745,0.604-1.35,1.35-1.35C733.635,458.836,734.24,459.44,734.24,460.185z"/>
					<path style="fill:#FAD5CF;" d="M743.035,460.185c0,0.746-0.604,1.35-1.35,1.35c-0.746,0-1.35-0.604-1.35-1.35
						c0-0.745,0.604-1.35,1.35-1.35C742.43,458.836,743.035,459.44,743.035,460.185z"/>
					<path style="fill:#FAD5CF;" d="M751.83,460.185c0,0.746-0.604,1.35-1.35,1.35c-0.746,0-1.35-0.604-1.35-1.35
						c0-0.745,0.604-1.35,1.35-1.35C751.225,458.836,751.83,459.44,751.83,460.185z"/>
					<path style="fill:#FAD5CF;" d="M760.625,460.185c0,0.746-0.604,1.35-1.35,1.35c-0.746,0-1.35-0.604-1.35-1.35
						c0-0.745,0.604-1.35,1.35-1.35C760.021,458.836,760.625,459.44,760.625,460.185z"/>
				</g>
				<g>
					<circle style="fill:#FAD5CF;" cx="706.504" cy="469.472" r="1.35"/>
					<circle style="fill:#FAD5CF;" cx="715.299" cy="469.472" r="1.35"/>
					<path style="fill:#FAD5CF;" d="M725.444,469.472c0,0.746-0.604,1.35-1.35,1.35c-0.746,0-1.35-0.604-1.35-1.35
						c0-0.745,0.604-1.35,1.35-1.35C724.84,468.122,725.444,468.726,725.444,469.472z"/>
					<path style="fill:#FAD5CF;" d="M734.24,469.472c0,0.746-0.604,1.35-1.35,1.35c-0.745,0-1.35-0.604-1.35-1.35
						c0-0.745,0.604-1.35,1.35-1.35C733.635,468.122,734.24,468.726,734.24,469.472z"/>
					<circle style="fill:#FAD5CF;" cx="741.685" cy="469.472" r="1.35"/>
					<path style="fill:#FAD5CF;" d="M751.83,469.472c0,0.746-0.604,1.35-1.35,1.35c-0.746,0-1.35-0.604-1.35-1.35
						c0-0.745,0.604-1.35,1.35-1.35C751.225,468.122,751.83,468.726,751.83,469.472z"/>
					<path style="fill:#FAD5CF;" d="M760.625,469.472c0,0.746-0.604,1.35-1.35,1.35c-0.746,0-1.35-0.604-1.35-1.35
						c0-0.745,0.604-1.35,1.35-1.35C760.021,468.122,760.625,468.726,760.625,469.472z"/>
				</g>
				<g>
					<path style="fill:#FAD5CF;" d="M707.854,478.758c0,0.746-0.604,1.35-1.35,1.35s-1.35-0.604-1.35-1.35
						c0-0.746,0.604-1.35,1.35-1.35S707.854,478.012,707.854,478.758z"/>
					<path style="fill:#FAD5CF;" d="M716.649,478.758c0,0.746-0.604,1.35-1.35,1.35c-0.746,0-1.35-0.604-1.35-1.35
						c0-0.746,0.604-1.35,1.35-1.35C716.045,477.408,716.649,478.012,716.649,478.758z"/>
					<path style="fill:#FAD5CF;" d="M725.444,478.758c0,0.746-0.604,1.35-1.35,1.35c-0.746,0-1.35-0.604-1.35-1.35
						c0-0.746,0.604-1.35,1.35-1.35C724.84,477.408,725.444,478.012,725.444,478.758z"/>
					<path style="fill:#FAD5CF;" d="M734.24,478.758c0,0.746-0.604,1.35-1.35,1.35c-0.745,0-1.35-0.604-1.35-1.35
						c0-0.746,0.604-1.35,1.35-1.35C733.635,477.408,734.24,478.012,734.24,478.758z"/>
					<path style="fill:#FAD5CF;" d="M743.035,478.758c0,0.746-0.604,1.35-1.35,1.35c-0.746,0-1.35-0.604-1.35-1.35
						c0-0.746,0.604-1.35,1.35-1.35C742.43,477.408,743.035,478.012,743.035,478.758z"/>
					<path style="fill:#FAD5CF;" d="M751.83,478.758c0,0.746-0.604,1.35-1.35,1.35c-0.746,0-1.35-0.604-1.35-1.35
						c0-0.746,0.604-1.35,1.35-1.35C751.225,477.408,751.83,478.012,751.83,478.758z"/>
					<path style="fill:#FAD5CF;" d="M760.625,478.758c0,0.746-0.604,1.35-1.35,1.35c-0.746,0-1.35-0.604-1.35-1.35
						c0-0.746,0.604-1.35,1.35-1.35C760.021,477.408,760.625,478.012,760.625,478.758z"/>
				</g>
				<g>
					<path style="fill:#FAD5CF;" d="M707.854,488.044c0,0.746-0.604,1.35-1.35,1.35s-1.35-0.604-1.35-1.35
						c0-0.746,0.604-1.35,1.35-1.35S707.854,487.298,707.854,488.044z"/>
					<path style="fill:#FAD5CF;" d="M716.649,488.044c0,0.746-0.604,1.35-1.35,1.35c-0.746,0-1.35-0.604-1.35-1.35
						c0-0.746,0.604-1.35,1.35-1.35C716.045,486.694,716.649,487.298,716.649,488.044z"/>
					<path style="fill:#FAD5CF;" d="M725.444,488.044c0,0.746-0.604,1.35-1.35,1.35c-0.746,0-1.35-0.604-1.35-1.35
						c0-0.746,0.604-1.35,1.35-1.35C724.84,486.694,725.444,487.298,725.444,488.044z"/>
					<path style="fill:#FAD5CF;" d="M734.24,488.044c0,0.746-0.604,1.35-1.35,1.35c-0.745,0-1.35-0.604-1.35-1.35
						c0-0.746,0.604-1.35,1.35-1.35C733.635,486.694,734.24,487.298,734.24,488.044z"/>
					<path style="fill:#FAD5CF;" d="M743.035,488.044c0,0.746-0.604,1.35-1.35,1.35c-0.746,0-1.35-0.604-1.35-1.35
						c0-0.746,0.604-1.35,1.35-1.35C742.43,486.694,743.035,487.298,743.035,488.044z"/>
					<path style="fill:#FAD5CF;" d="M751.83,488.044c0,0.746-0.604,1.35-1.35,1.35c-0.746,0-1.35-0.604-1.35-1.35
						c0-0.746,0.604-1.35,1.35-1.35C751.225,486.694,751.83,487.298,751.83,488.044z"/>
					<path style="fill:#FAD5CF;" d="M760.625,488.044c0,0.746-0.604,1.35-1.35,1.35c-0.746,0-1.35-0.604-1.35-1.35
						c0-0.746,0.604-1.35,1.35-1.35C760.021,486.694,760.625,487.298,760.625,488.044z"/>
				</g>
				<g>
					<path style="fill:#FAD5CF;" d="M707.854,497.33c0,0.746-0.604,1.35-1.35,1.35s-1.35-0.604-1.35-1.35
						c0-0.746,0.604-1.35,1.35-1.35S707.854,496.584,707.854,497.33z"/>
					<path style="fill:#FAD5CF;" d="M716.649,497.33c0,0.746-0.604,1.35-1.35,1.35c-0.746,0-1.35-0.604-1.35-1.35
						c0-0.746,0.604-1.35,1.35-1.35C716.045,495.98,716.649,496.584,716.649,497.33z"/>
					<path style="fill:#FAD5CF;" d="M725.444,497.33c0,0.746-0.604,1.35-1.35,1.35c-0.746,0-1.35-0.604-1.35-1.35
						c0-0.746,0.604-1.35,1.35-1.35C724.84,495.98,725.444,496.584,725.444,497.33z"/>
					<path style="fill:#FAD5CF;" d="M734.24,497.33c0,0.746-0.604,1.35-1.35,1.35c-0.745,0-1.35-0.604-1.35-1.35
						c0-0.746,0.604-1.35,1.35-1.35C733.635,495.98,734.24,496.584,734.24,497.33z"/>
					<path style="fill:#FAD5CF;" d="M743.035,497.33c0,0.746-0.604,1.35-1.35,1.35c-0.746,0-1.35-0.604-1.35-1.35
						c0-0.746,0.604-1.35,1.35-1.35C742.43,495.98,743.035,496.584,743.035,497.33z"/>
					<path style="fill:#FAD5CF;" d="M751.83,497.33c0,0.746-0.604,1.35-1.35,1.35c-0.746,0-1.35-0.604-1.35-1.35
						c0-0.746,0.604-1.35,1.35-1.35C751.225,495.98,751.83,496.584,751.83,497.33z"/>
					<path style="fill:#FAD5CF;" d="M760.625,497.33c0,0.746-0.604,1.35-1.35,1.35c-0.746,0-1.35-0.604-1.35-1.35
						c0-0.746,0.604-1.35,1.35-1.35C760.021,495.98,760.625,496.584,760.625,497.33z"/>
				</g>
				<g>
					<path style="fill:#FAD5CF;" d="M707.854,506.616c0,0.745-0.604,1.35-1.35,1.35s-1.35-0.604-1.35-1.35
						c0-0.746,0.604-1.35,1.35-1.35S707.854,505.87,707.854,506.616z"/>
					<path style="fill:#FAD5CF;" d="M716.649,506.616c0,0.745-0.604,1.35-1.35,1.35c-0.746,0-1.35-0.604-1.35-1.35
						c0-0.746,0.604-1.35,1.35-1.35C716.045,505.266,716.649,505.87,716.649,506.616z"/>
					<path style="fill:#FAD5CF;" d="M725.444,506.616c0,0.745-0.604,1.35-1.35,1.35c-0.746,0-1.35-0.604-1.35-1.35
						c0-0.746,0.604-1.35,1.35-1.35C724.84,505.266,725.444,505.87,725.444,506.616z"/>
					<path style="fill:#FAD5CF;" d="M734.24,506.616c0,0.745-0.604,1.35-1.35,1.35c-0.745,0-1.35-0.604-1.35-1.35
						c0-0.746,0.604-1.35,1.35-1.35C733.635,505.266,734.24,505.87,734.24,506.616z"/>
					<path style="fill:#FAD5CF;" d="M743.035,506.616c0,0.745-0.604,1.35-1.35,1.35c-0.746,0-1.35-0.604-1.35-1.35
						c0-0.746,0.604-1.35,1.35-1.35C742.43,505.266,743.035,505.87,743.035,506.616z"/>
					<path style="fill:#FAD5CF;" d="M751.83,506.616c0,0.745-0.604,1.35-1.35,1.35c-0.746,0-1.35-0.604-1.35-1.35
						c0-0.746,0.604-1.35,1.35-1.35C751.225,505.266,751.83,505.87,751.83,506.616z"/>
					<path style="fill:#FAD5CF;" d="M760.625,506.616c0,0.745-0.604,1.35-1.35,1.35c-0.746,0-1.35-0.604-1.35-1.35
						c0-0.746,0.604-1.35,1.35-1.35C760.021,505.266,760.625,505.87,760.625,506.616z"/>
				</g>
				<g>
					<path style="fill:#FAD5CF;" d="M707.854,515.902c0,0.746-0.604,1.35-1.35,1.35s-1.35-0.604-1.35-1.35
						c0-0.746,0.604-1.35,1.35-1.35S707.854,515.156,707.854,515.902z"/>
					<path style="fill:#FAD5CF;" d="M716.649,515.902c0,0.746-0.604,1.35-1.35,1.35c-0.746,0-1.35-0.604-1.35-1.35
						c0-0.746,0.604-1.35,1.35-1.35C716.045,514.552,716.649,515.156,716.649,515.902z"/>
					<path style="fill:#FAD5CF;" d="M725.444,515.902c0,0.746-0.604,1.35-1.35,1.35c-0.746,0-1.35-0.604-1.35-1.35
						c0-0.746,0.604-1.35,1.35-1.35C724.84,514.552,725.444,515.156,725.444,515.902z"/>
					<path style="fill:#FAD5CF;" d="M734.24,515.902c0,0.746-0.604,1.35-1.35,1.35c-0.745,0-1.35-0.604-1.35-1.35
						c0-0.746,0.604-1.35,1.35-1.35C733.635,514.552,734.24,515.156,734.24,515.902z"/>
					<path style="fill:#FAD5CF;" d="M743.035,515.902c0,0.746-0.604,1.35-1.35,1.35c-0.746,0-1.35-0.604-1.35-1.35
						c0-0.746,0.604-1.35,1.35-1.35C742.43,514.552,743.035,515.156,743.035,515.902z"/>
					<path style="fill:#FAD5CF;" d="M751.83,515.902c0,0.746-0.604,1.35-1.35,1.35c-0.746,0-1.35-0.604-1.35-1.35
						c0-0.746,0.604-1.35,1.35-1.35C751.225,514.552,751.83,515.156,751.83,515.902z"/>
					<path style="fill:#FAD5CF;" d="M760.625,515.902c0,0.746-0.604,1.35-1.35,1.35c-0.746,0-1.35-0.604-1.35-1.35
						c0-0.746,0.604-1.35,1.35-1.35C760.021,514.552,760.625,515.156,760.625,515.902z"/>
				</g>
			</g>
			<g>
				<g>
					<path style="fill:#F29587;" d="M-14.519,342.934c0,0.718-0.582,1.3-1.3,1.3c-0.718,0-1.3-0.582-1.3-1.3
						c0-0.718,0.582-1.3,1.3-1.3C-15.102,341.634-14.519,342.216-14.519,342.934z"/>
					<path style="fill:#F29587;" d="M-6.049,342.934c0,0.718-0.582,1.3-1.3,1.3s-1.3-0.582-1.3-1.3c0-0.718,0.582-1.3,1.3-1.3
						S-6.049,342.216-6.049,342.934z"/>
					<path style="fill:#F29587;" d="M2.421,342.934c0,0.718-0.582,1.3-1.3,1.3s-1.3-0.582-1.3-1.3c0-0.718,0.582-1.3,1.3-1.3
						S2.421,342.216,2.421,342.934z"/>
					<path style="fill:#F29587;" d="M10.891,342.934c0,0.718-0.582,1.3-1.3,1.3c-0.718,0-1.3-0.582-1.3-1.3
						c0-0.718,0.582-1.3,1.3-1.3C10.309,341.634,10.891,342.216,10.891,342.934z"/>
					<path style="fill:#F29587;" d="M19.361,342.934c0,0.718-0.582,1.3-1.3,1.3s-1.3-0.582-1.3-1.3c0-0.718,0.582-1.3,1.3-1.3
						S19.361,342.216,19.361,342.934z"/>
					<path style="fill:#F29587;" d="M27.831,342.934c0,0.718-0.582,1.3-1.3,1.3c-0.718,0-1.3-0.582-1.3-1.3
						c0-0.718,0.582-1.3,1.3-1.3C27.249,341.634,27.831,342.216,27.831,342.934z"/>
					<path style="fill:#F29587;" d="M36.301,342.934c0,0.718-0.582,1.3-1.3,1.3s-1.3-0.582-1.3-1.3c0-0.718,0.582-1.3,1.3-1.3
						S36.301,342.216,36.301,342.934z"/>
				</g>
				<g>
					<path style="fill:#F29587;" d="M-14.519,351.877c0,0.718-0.582,1.3-1.3,1.3c-0.718,0-1.3-0.582-1.3-1.3
						c0-0.718,0.582-1.3,1.3-1.3C-15.102,350.577-14.519,351.159-14.519,351.877z"/>
					<path style="fill:#F29587;" d="M-6.049,351.877c0,0.718-0.582,1.3-1.3,1.3s-1.3-0.582-1.3-1.3c0-0.718,0.582-1.3,1.3-1.3
						S-6.049,351.159-6.049,351.877z"/>
					<path style="fill:#F29587;" d="M2.421,351.877c0,0.718-0.582,1.3-1.3,1.3s-1.3-0.582-1.3-1.3c0-0.718,0.582-1.3,1.3-1.3
						S2.421,351.159,2.421,351.877z"/>
					<path style="fill:#F29587;" d="M10.891,351.877c0,0.718-0.582,1.3-1.3,1.3c-0.718,0-1.3-0.582-1.3-1.3
						c0-0.718,0.582-1.3,1.3-1.3C10.309,350.577,10.891,351.159,10.891,351.877z"/>
					<path style="fill:#F29587;" d="M19.361,351.877c0,0.718-0.582,1.3-1.3,1.3s-1.3-0.582-1.3-1.3c0-0.718,0.582-1.3,1.3-1.3
						S19.361,351.159,19.361,351.877z"/>
					<path style="fill:#F29587;" d="M27.831,351.877c0,0.718-0.582,1.3-1.3,1.3c-0.718,0-1.3-0.582-1.3-1.3
						c0-0.718,0.582-1.3,1.3-1.3C27.249,350.577,27.831,351.159,27.831,351.877z"/>
					<path style="fill:#F29587;" d="M36.301,351.877c0,0.718-0.582,1.3-1.3,1.3s-1.3-0.582-1.3-1.3c0-0.718,0.582-1.3,1.3-1.3
						S36.301,351.159,36.301,351.877z"/>
				</g>
				<g>
					<path style="fill:#F29587;" d="M-14.519,360.82c0,0.718-0.582,1.3-1.3,1.3c-0.718,0-1.3-0.582-1.3-1.3
						c0-0.718,0.582-1.3,1.3-1.3C-15.102,359.52-14.519,360.102-14.519,360.82z"/>
					<path style="fill:#F29587;" d="M-6.049,360.82c0,0.718-0.582,1.3-1.3,1.3s-1.3-0.582-1.3-1.3c0-0.718,0.582-1.3,1.3-1.3
						S-6.049,360.102-6.049,360.82z"/>
					<path style="fill:#F29587;" d="M2.421,360.82c0,0.718-0.582,1.3-1.3,1.3s-1.3-0.582-1.3-1.3c0-0.718,0.582-1.3,1.3-1.3
						S2.421,360.102,2.421,360.82z"/>
					<path style="fill:#F29587;" d="M10.891,360.82c0,0.718-0.582,1.3-1.3,1.3c-0.718,0-1.3-0.582-1.3-1.3
						c0-0.718,0.582-1.3,1.3-1.3C10.309,359.52,10.891,360.102,10.891,360.82z"/>
					<path style="fill:#F29587;" d="M19.361,360.82c0,0.718-0.582,1.3-1.3,1.3s-1.3-0.582-1.3-1.3c0-0.718,0.582-1.3,1.3-1.3
						S19.361,360.102,19.361,360.82z"/>
					<path style="fill:#F29587;" d="M27.831,360.82c0,0.718-0.582,1.3-1.3,1.3c-0.718,0-1.3-0.582-1.3-1.3
						c0-0.718,0.582-1.3,1.3-1.3C27.249,359.52,27.831,360.102,27.831,360.82z"/>
					<path style="fill:#F29587;" d="M36.301,360.82c0,0.718-0.582,1.3-1.3,1.3s-1.3-0.582-1.3-1.3c0-0.718,0.582-1.3,1.3-1.3
						S36.301,360.102,36.301,360.82z"/>
				</g>
				<g>
					<path style="fill:#F29587;" d="M-14.519,369.763c0,0.718-0.582,1.3-1.3,1.3c-0.718,0-1.3-0.582-1.3-1.3s0.582-1.3,1.3-1.3
						C-15.102,368.463-14.519,369.045-14.519,369.763z"/>
					<path style="fill:#F29587;" d="M-6.049,369.763c0,0.718-0.582,1.3-1.3,1.3s-1.3-0.582-1.3-1.3s0.582-1.3,1.3-1.3
						S-6.049,369.045-6.049,369.763z"/>
					<path style="fill:#F29587;" d="M2.421,369.763c0,0.718-0.582,1.3-1.3,1.3s-1.3-0.582-1.3-1.3s0.582-1.3,1.3-1.3
						S2.421,369.045,2.421,369.763z"/>
					<circle style="fill:#F29587;" cx="9.591" cy="369.763" r="1.3"/>
					<path style="fill:#F29587;" d="M19.361,369.763c0,0.718-0.582,1.3-1.3,1.3s-1.3-0.582-1.3-1.3s0.582-1.3,1.3-1.3
						S19.361,369.045,19.361,369.763z"/>
					<path style="fill:#F29587;" d="M27.831,369.763c0,0.718-0.582,1.3-1.3,1.3c-0.718,0-1.3-0.582-1.3-1.3s0.582-1.3,1.3-1.3
						C27.249,368.463,27.831,369.045,27.831,369.763z"/>
					<path style="fill:#F29587;" d="M36.301,369.763c0,0.718-0.582,1.3-1.3,1.3s-1.3-0.582-1.3-1.3s0.582-1.3,1.3-1.3
						S36.301,369.045,36.301,369.763z"/>
				</g>
				<g>
					<path style="fill:#F29587;" d="M-14.519,378.706c0,0.718-0.582,1.3-1.3,1.3c-0.718,0-1.3-0.582-1.3-1.3s0.582-1.3,1.3-1.3
						C-15.102,377.406-14.519,377.988-14.519,378.706z"/>
					<path style="fill:#F29587;" d="M-6.049,378.706c0,0.718-0.582,1.3-1.3,1.3s-1.3-0.582-1.3-1.3s0.582-1.3,1.3-1.3
						S-6.049,377.988-6.049,378.706z"/>
					<path style="fill:#F29587;" d="M2.421,378.706c0,0.718-0.582,1.3-1.3,1.3s-1.3-0.582-1.3-1.3s0.582-1.3,1.3-1.3
						S2.421,377.988,2.421,378.706z"/>
					<path style="fill:#F29587;" d="M10.891,378.706c0,0.718-0.582,1.3-1.3,1.3c-0.718,0-1.3-0.582-1.3-1.3s0.582-1.3,1.3-1.3
						C10.309,377.406,10.891,377.988,10.891,378.706z"/>
					<path style="fill:#F29587;" d="M19.361,378.706c0,0.718-0.582,1.3-1.3,1.3s-1.3-0.582-1.3-1.3s0.582-1.3,1.3-1.3
						S19.361,377.988,19.361,378.706z"/>
					<path style="fill:#F29587;" d="M27.831,378.706c0,0.718-0.582,1.3-1.3,1.3c-0.718,0-1.3-0.582-1.3-1.3s0.582-1.3,1.3-1.3
						C27.249,377.406,27.831,377.988,27.831,378.706z"/>
					<path style="fill:#F29587;" d="M36.301,378.706c0,0.718-0.582,1.3-1.3,1.3s-1.3-0.582-1.3-1.3s0.582-1.3,1.3-1.3
						S36.301,377.988,36.301,378.706z"/>
				</g>
				<g>
					<path style="fill:#F29587;" d="M-14.519,387.649c0,0.718-0.582,1.3-1.3,1.3c-0.718,0-1.3-0.582-1.3-1.3
						c0-0.718,0.582-1.3,1.3-1.3C-15.102,386.349-14.519,386.931-14.519,387.649z"/>
					<path style="fill:#F29587;" d="M-6.049,387.649c0,0.718-0.582,1.3-1.3,1.3s-1.3-0.582-1.3-1.3c0-0.718,0.582-1.3,1.3-1.3
						S-6.049,386.931-6.049,387.649z"/>
					<path style="fill:#F29587;" d="M2.421,387.649c0,0.718-0.582,1.3-1.3,1.3s-1.3-0.582-1.3-1.3c0-0.718,0.582-1.3,1.3-1.3
						S2.421,386.931,2.421,387.649z"/>
					<path style="fill:#F29587;" d="M10.891,387.649c0,0.718-0.582,1.3-1.3,1.3c-0.718,0-1.3-0.582-1.3-1.3
						c0-0.718,0.582-1.3,1.3-1.3C10.309,386.349,10.891,386.931,10.891,387.649z"/>
					<path style="fill:#F29587;" d="M19.361,387.649c0,0.718-0.582,1.3-1.3,1.3s-1.3-0.582-1.3-1.3c0-0.718,0.582-1.3,1.3-1.3
						S19.361,386.931,19.361,387.649z"/>
					<path style="fill:#F29587;" d="M27.831,387.649c0,0.718-0.582,1.3-1.3,1.3c-0.718,0-1.3-0.582-1.3-1.3
						c0-0.718,0.582-1.3,1.3-1.3C27.249,386.349,27.831,386.931,27.831,387.649z"/>
					<path style="fill:#F29587;" d="M36.301,387.649c0,0.718-0.582,1.3-1.3,1.3s-1.3-0.582-1.3-1.3c0-0.718,0.582-1.3,1.3-1.3
						S36.301,386.931,36.301,387.649z"/>
				</g>
				<g>
					<path style="fill:#F29587;" d="M-14.519,396.592c0,0.718-0.582,1.3-1.3,1.3c-0.718,0-1.3-0.582-1.3-1.3
						c0-0.718,0.582-1.3,1.3-1.3C-15.102,395.292-14.519,395.874-14.519,396.592z"/>
					<path style="fill:#F29587;" d="M-6.049,396.592c0,0.718-0.582,1.3-1.3,1.3s-1.3-0.582-1.3-1.3c0-0.718,0.582-1.3,1.3-1.3
						S-6.049,395.874-6.049,396.592z"/>
					<path style="fill:#F29587;" d="M2.421,396.592c0,0.718-0.582,1.3-1.3,1.3s-1.3-0.582-1.3-1.3c0-0.718,0.582-1.3,1.3-1.3
						S2.421,395.874,2.421,396.592z"/>
					<circle style="fill:#F29587;" cx="9.591" cy="396.592" r="1.3"/>
					<path style="fill:#F29587;" d="M19.361,396.592c0,0.718-0.582,1.3-1.3,1.3s-1.3-0.582-1.3-1.3c0-0.718,0.582-1.3,1.3-1.3
						S19.361,395.874,19.361,396.592z"/>
					<path style="fill:#F29587;" d="M27.831,396.592c0,0.718-0.582,1.3-1.3,1.3c-0.718,0-1.3-0.582-1.3-1.3
						c0-0.718,0.582-1.3,1.3-1.3C27.249,395.292,27.831,395.874,27.831,396.592z"/>
					<path style="fill:#F29587;" d="M36.301,396.592c0,0.718-0.582,1.3-1.3,1.3s-1.3-0.582-1.3-1.3c0-0.718,0.582-1.3,1.3-1.3
						S36.301,395.874,36.301,396.592z"/>
				</g>
			</g>
			<g>
				<g>
					<path style="fill:#F29587;" d="M532.461,129.896c0,0.718-0.582,1.3-1.3,1.3c-0.718,0-1.3-0.582-1.3-1.3s0.582-1.3,1.3-1.3
						C531.878,128.596,532.461,129.178,532.461,129.896z"/>
					<path style="fill:#F29587;" d="M540.931,129.896c0,0.718-0.582,1.3-1.3,1.3c-0.718,0-1.3-0.582-1.3-1.3s0.582-1.3,1.3-1.3
						C540.349,128.596,540.931,129.178,540.931,129.896z"/>
					<path style="fill:#F29587;" d="M549.401,129.896c0,0.718-0.582,1.3-1.3,1.3c-0.718,0-1.3-0.582-1.3-1.3s0.582-1.3,1.3-1.3
						C548.819,128.596,549.401,129.178,549.401,129.896z"/>
					<path style="fill:#F29587;" d="M557.871,129.896c0,0.718-0.582,1.3-1.3,1.3c-0.718,0-1.3-0.582-1.3-1.3s0.582-1.3,1.3-1.3
						C557.289,128.596,557.871,129.178,557.871,129.896z"/>
					<path style="fill:#F29587;" d="M566.341,129.896c0,0.718-0.582,1.3-1.3,1.3s-1.3-0.582-1.3-1.3s0.582-1.3,1.3-1.3
						S566.341,129.178,566.341,129.896z"/>
					<path style="fill:#F29587;" d="M574.811,129.896c0,0.718-0.582,1.3-1.3,1.3c-0.718,0-1.3-0.582-1.3-1.3s0.582-1.3,1.3-1.3
						C574.229,128.596,574.811,129.178,574.811,129.896z"/>
					<path style="fill:#F29587;" d="M583.281,129.896c0,0.718-0.582,1.3-1.3,1.3c-0.718,0-1.3-0.582-1.3-1.3s0.582-1.3,1.3-1.3
						C582.699,128.596,583.281,129.178,583.281,129.896z"/>
				</g>
				<g>
					<path style="fill:#F29587;" d="M532.461,138.839c0,0.718-0.582,1.3-1.3,1.3c-0.718,0-1.3-0.582-1.3-1.3s0.582-1.3,1.3-1.3
						C531.878,137.539,532.461,138.121,532.461,138.839z"/>
					<path style="fill:#F29587;" d="M540.931,138.839c0,0.718-0.582,1.3-1.3,1.3c-0.718,0-1.3-0.582-1.3-1.3s0.582-1.3,1.3-1.3
						C540.349,137.539,540.931,138.121,540.931,138.839z"/>
					<path style="fill:#F29587;" d="M549.401,138.839c0,0.718-0.582,1.3-1.3,1.3c-0.718,0-1.3-0.582-1.3-1.3s0.582-1.3,1.3-1.3
						C548.819,137.539,549.401,138.121,549.401,138.839z"/>
					<path style="fill:#F29587;" d="M557.871,138.839c0,0.718-0.582,1.3-1.3,1.3c-0.718,0-1.3-0.582-1.3-1.3s0.582-1.3,1.3-1.3
						C557.289,137.539,557.871,138.121,557.871,138.839z"/>
					<path style="fill:#F29587;" d="M566.341,138.839c0,0.718-0.582,1.3-1.3,1.3s-1.3-0.582-1.3-1.3s0.582-1.3,1.3-1.3
						S566.341,138.121,566.341,138.839z"/>
					<path style="fill:#F29587;" d="M574.811,138.839c0,0.718-0.582,1.3-1.3,1.3c-0.718,0-1.3-0.582-1.3-1.3s0.582-1.3,1.3-1.3
						C574.229,137.539,574.811,138.121,574.811,138.839z"/>
					<path style="fill:#F29587;" d="M583.281,138.839c0,0.718-0.582,1.3-1.3,1.3c-0.718,0-1.3-0.582-1.3-1.3s0.582-1.3,1.3-1.3
						C582.699,137.539,583.281,138.121,583.281,138.839z"/>
				</g>
				<g>
					<path style="fill:#F29587;" d="M532.461,147.782c0,0.718-0.582,1.3-1.3,1.3c-0.718,0-1.3-0.582-1.3-1.3
						c0-0.718,0.582-1.3,1.3-1.3C531.878,146.482,532.461,147.064,532.461,147.782z"/>
					<path style="fill:#F29587;" d="M540.931,147.782c0,0.718-0.582,1.3-1.3,1.3c-0.718,0-1.3-0.582-1.3-1.3
						c0-0.718,0.582-1.3,1.3-1.3C540.349,146.482,540.931,147.064,540.931,147.782z"/>
					<path style="fill:#F29587;" d="M549.401,147.782c0,0.718-0.582,1.3-1.3,1.3c-0.718,0-1.3-0.582-1.3-1.3
						c0-0.718,0.582-1.3,1.3-1.3C548.819,146.482,549.401,147.064,549.401,147.782z"/>
					<path style="fill:#F29587;" d="M557.871,147.782c0,0.718-0.582,1.3-1.3,1.3c-0.718,0-1.3-0.582-1.3-1.3
						c0-0.718,0.582-1.3,1.3-1.3C557.289,146.482,557.871,147.064,557.871,147.782z"/>
					<path style="fill:#F29587;" d="M566.341,147.782c0,0.718-0.582,1.3-1.3,1.3s-1.3-0.582-1.3-1.3c0-0.718,0.582-1.3,1.3-1.3
						S566.341,147.064,566.341,147.782z"/>
					<path style="fill:#F29587;" d="M574.811,147.782c0,0.718-0.582,1.3-1.3,1.3c-0.718,0-1.3-0.582-1.3-1.3
						c0-0.718,0.582-1.3,1.3-1.3C574.229,146.482,574.811,147.064,574.811,147.782z"/>
					<path style="fill:#F29587;" d="M583.281,147.782c0,0.718-0.582,1.3-1.3,1.3c-0.718,0-1.3-0.582-1.3-1.3
						c0-0.718,0.582-1.3,1.3-1.3C582.699,146.482,583.281,147.064,583.281,147.782z"/>
				</g>
				<g>
					<path style="fill:#F29587;" d="M532.461,156.725c0,0.718-0.582,1.3-1.3,1.3c-0.718,0-1.3-0.582-1.3-1.3
						c0-0.718,0.582-1.3,1.3-1.3C531.878,155.425,532.461,156.007,532.461,156.725z"/>
					<path style="fill:#F29587;" d="M540.931,156.725c0,0.718-0.582,1.3-1.3,1.3c-0.718,0-1.3-0.582-1.3-1.3
						c0-0.718,0.582-1.3,1.3-1.3C540.349,155.425,540.931,156.007,540.931,156.725z"/>
					<path style="fill:#F29587;" d="M549.401,156.725c0,0.718-0.582,1.3-1.3,1.3c-0.718,0-1.3-0.582-1.3-1.3
						c0-0.718,0.582-1.3,1.3-1.3C548.819,155.425,549.401,156.007,549.401,156.725z"/>
					<circle style="fill:#F29587;" cx="556.571" cy="156.725" r="1.3"/>
					<circle style="fill:#F29587;" cx="565.041" cy="156.725" r="1.3"/>
					<path style="fill:#F29587;" d="M574.811,156.725c0,0.718-0.582,1.3-1.3,1.3c-0.718,0-1.3-0.582-1.3-1.3
						c0-0.718,0.582-1.3,1.3-1.3C574.229,155.425,574.811,156.007,574.811,156.725z"/>
					<path style="fill:#F29587;" d="M583.281,156.725c0,0.718-0.582,1.3-1.3,1.3c-0.718,0-1.3-0.582-1.3-1.3
						c0-0.718,0.582-1.3,1.3-1.3C582.699,155.425,583.281,156.007,583.281,156.725z"/>
				</g>
				<g>
					<path style="fill:#F29587;" d="M532.461,165.668c0,0.718-0.582,1.3-1.3,1.3c-0.718,0-1.3-0.582-1.3-1.3
						c0-0.718,0.582-1.3,1.3-1.3C531.878,164.368,532.461,164.95,532.461,165.668z"/>
					<path style="fill:#F29587;" d="M540.931,165.668c0,0.718-0.582,1.3-1.3,1.3c-0.718,0-1.3-0.582-1.3-1.3
						c0-0.718,0.582-1.3,1.3-1.3C540.349,164.368,540.931,164.95,540.931,165.668z"/>
					<path style="fill:#F29587;" d="M549.401,165.668c0,0.718-0.582,1.3-1.3,1.3c-0.718,0-1.3-0.582-1.3-1.3
						c0-0.718,0.582-1.3,1.3-1.3C548.819,164.368,549.401,164.95,549.401,165.668z"/>
					<path style="fill:#F29587;" d="M557.871,165.668c0,0.718-0.582,1.3-1.3,1.3c-0.718,0-1.3-0.582-1.3-1.3
						c0-0.718,0.582-1.3,1.3-1.3C557.289,164.368,557.871,164.95,557.871,165.668z"/>
					<path style="fill:#F29587;" d="M566.341,165.668c0,0.718-0.582,1.3-1.3,1.3s-1.3-0.582-1.3-1.3c0-0.718,0.582-1.3,1.3-1.3
						S566.341,164.95,566.341,165.668z"/>
					<path style="fill:#F29587;" d="M574.811,165.668c0,0.718-0.582,1.3-1.3,1.3c-0.718,0-1.3-0.582-1.3-1.3
						c0-0.718,0.582-1.3,1.3-1.3C574.229,164.368,574.811,164.95,574.811,165.668z"/>
					<path style="fill:#F29587;" d="M583.281,165.668c0,0.718-0.582,1.3-1.3,1.3c-0.718,0-1.3-0.582-1.3-1.3
						c0-0.718,0.582-1.3,1.3-1.3C582.699,164.368,583.281,164.95,583.281,165.668z"/>
				</g>
				<g>
					<path style="fill:#F29587;" d="M532.461,174.611c0,0.718-0.582,1.3-1.3,1.3c-0.718,0-1.3-0.582-1.3-1.3s0.582-1.3,1.3-1.3
						C531.878,173.311,532.461,173.893,532.461,174.611z"/>
					<path style="fill:#F29587;" d="M540.931,174.611c0,0.718-0.582,1.3-1.3,1.3c-0.718,0-1.3-0.582-1.3-1.3s0.582-1.3,1.3-1.3
						C540.349,173.311,540.931,173.893,540.931,174.611z"/>
					<path style="fill:#F29587;" d="M549.401,174.611c0,0.718-0.582,1.3-1.3,1.3c-0.718,0-1.3-0.582-1.3-1.3s0.582-1.3,1.3-1.3
						C548.819,173.311,549.401,173.893,549.401,174.611z"/>
					<circle style="fill:#F29587;" cx="556.571" cy="174.611" r="1.3"/>
					<circle style="fill:#F29587;" cx="565.041" cy="174.611" r="1.3"/>
					<path style="fill:#F29587;" d="M574.811,174.611c0,0.718-0.582,1.3-1.3,1.3c-0.718,0-1.3-0.582-1.3-1.3s0.582-1.3,1.3-1.3
						C574.229,173.311,574.811,173.893,574.811,174.611z"/>
					<path style="fill:#F29587;" d="M583.281,174.611c0,0.718-0.582,1.3-1.3,1.3c-0.718,0-1.3-0.582-1.3-1.3s0.582-1.3,1.3-1.3
						C582.699,173.311,583.281,173.893,583.281,174.611z"/>
				</g>
				<g>
					<path style="fill:#F29587;" d="M532.461,183.554c0,0.718-0.582,1.3-1.3,1.3c-0.718,0-1.3-0.582-1.3-1.3s0.582-1.3,1.3-1.3
						C531.878,182.254,532.461,182.836,532.461,183.554z"/>
					<path style="fill:#F29587;" d="M540.931,183.554c0,0.718-0.582,1.3-1.3,1.3c-0.718,0-1.3-0.582-1.3-1.3s0.582-1.3,1.3-1.3
						C540.349,182.254,540.931,182.836,540.931,183.554z"/>
					<path style="fill:#F29587;" d="M549.401,183.554c0,0.718-0.582,1.3-1.3,1.3c-0.718,0-1.3-0.582-1.3-1.3s0.582-1.3,1.3-1.3
						C548.819,182.254,549.401,182.836,549.401,183.554z"/>
					<circle style="fill:#F29587;" cx="556.571" cy="183.554" r="1.3"/>
					<circle style="fill:#F29587;" cx="565.041" cy="183.554" r="1.3"/>
					<path style="fill:#F29587;" d="M574.811,183.554c0,0.718-0.582,1.3-1.3,1.3c-0.718,0-1.3-0.582-1.3-1.3s0.582-1.3,1.3-1.3
						C574.229,182.254,574.811,182.836,574.811,183.554z"/>
					<path style="fill:#F29587;" d="M583.281,183.554c0,0.718-0.582,1.3-1.3,1.3c-0.718,0-1.3-0.582-1.3-1.3s0.582-1.3,1.3-1.3
						C582.699,182.254,583.281,182.836,583.281,183.554z"/>
				</g>
			</g>
			<g>
				
					<rect x="482.158" y="312.274" transform="matrix(-1.836970e-16 1 -1 -1.836970e-16 881.4033 -253.0185)" style="fill:#F29587;" width="170.107" height="3.836"/>
				
					<rect x="473.436" y="312.274" transform="matrix(-1.836970e-16 1 -1 -1.836970e-16 872.6813 -244.2965)" style="fill:#F29587;" width="170.107" height="3.836"/>
				
					<rect x="464.714" y="312.274" transform="matrix(-1.836970e-16 1 -1 -1.836970e-16 863.9594 -235.5746)" style="fill:#F29587;" width="170.107" height="3.836"/>
			</g>
			<g>
				
					<rect x="-40.716" y="33.783" transform="matrix(-0.7462 0.6657 -0.6657 -0.7462 134.995 19.7664)" style="fill:#F29587;" width="208.891" height="3.664"/>
				
					<rect x="-46.262" y="27.565" transform="matrix(-0.7462 0.6657 -0.6657 -0.7462 121.1707 12.6018)" style="fill:#F29587;" width="208.891" height="3.664"/>
				
					<rect x="-51.809" y="21.348" transform="matrix(-0.7462 0.6657 -0.6657 -0.7462 107.3464 5.4373)" style="fill:#F29587;" width="208.891" height="3.665"/>
			</g>
			<g>
				
					<ellipse transform="matrix(0.8714 -0.4905 0.4905 0.8714 -35.1592 301.9899)" style="fill:#F25A3E;" cx="558.489" cy="218.064" rx="29.16" ry="29.16"/>
				<circle style="fill:#F7C0B7;" cx="558.489" cy="218.327" r="15.906"/>
			</g>
			<polygon style="fill:#F29587;" points="-18.357,91.279 74.053,-37.031 -70.161,-23.928 			"/>
			<polygon style="fill:#F7C0B7;" points="-18.357,91.279 117.62,-31.99 74.053,-37.031 			"/>
			<path style="fill:#F2998A;" d="M89.875,202.293H-14.759v-45.568H89.875c12.583,0,22.784,10.201,22.784,22.784v0
				C112.659,192.092,102.458,202.293,89.875,202.293z"/>
			<path style="fill:#F25A3E;" d="M89.39,188.122H-17.946c-5.545,0-10.041-4.495-10.041-10.041l0,0
				c0-5.545,4.496-10.041,10.041-10.041H89.39c5.545,0,10.041,4.495,10.041,10.041l0,0C99.431,183.626,94.935,188.122,89.39,188.122
				z"/>
			<path style="fill:#F2998A;" d="M49.042,156.879c0,7.907-6.41,14.317-14.317,14.317s-14.317-6.41-14.317-14.317
				c0-7.907,6.41-14.317,14.317-14.317S49.042,148.972,49.042,156.879z"/>
			<path style="fill:#F7C0B7;" d="M20.408,156.879c0,7.907,6.41,14.317,14.317,14.317s14.317-6.41,14.317-14.317
				c0-0.052-0.003-0.102-0.004-0.154H20.412C20.411,156.777,20.408,156.827,20.408,156.879z"/>
			<path style="fill:#F25A3E;" d="M153.205,167.382l-37.679,37.679l37.679,37.679l37.679-37.679L153.205,167.382z M129.273,205.061
				l23.932-23.932l23.932,23.932l-23.932,23.932L129.273,205.061z"/>
			<g>
				<g>
					
						<rect x="676.049" y="157.696" transform="matrix(0.7071 0.7071 -0.7071 0.7071 347.0101 -447.3806)" style="fill:#FAD5CF;" width="74.983" height="74.983"/>
					<polygon style="fill:#F7C0B7;" points="713.541,248.209 766.562,195.188 713.541,142.167 					"/>
				</g>
				<g>
					
						<rect x="684.571" y="165.604" transform="matrix(0.7071 -0.7071 0.7071 0.7071 71.4077 561.534)" style="fill:none;stroke:#F7C0B7;stroke-width:2;stroke-miterlimit:10;" width="57.932" height="57.932"/>
					
						<rect x="692.446" y="174.122" transform="matrix(0.7071 -0.7071 0.7071 0.7071 70.9542 561.7228)" style="fill:none;stroke:#F7C0B7;stroke-width:2;stroke-miterlimit:10;" width="42.181" height="42.181"/>
					
						<rect x="699.899" y="181.575" transform="matrix(0.7071 -0.7071 0.7071 0.7071 70.9541 561.7228)" style="fill:none;stroke:#F7C0B7;stroke-width:2;stroke-miterlimit:10;" width="27.274" height="27.274"/>
					
						<rect x="707.402" y="189.077" transform="matrix(0.7071 -0.7071 0.7071 0.7071 70.9521 561.7191)" style="fill:none;stroke:#F7C0B7;stroke-width:2;stroke-miterlimit:10;" width="12.27" height="12.27"/>
				</g>
			</g>
			<path style="fill:#F7C0B7;" d="M153.205,194.549l-10.512,10.512l10.512,10.512l10.512-10.512L153.205,194.549z M146.528,205.061
				l6.677-6.677l6.677,6.677l-6.677,6.677L146.528,205.061z"/>
			<g>
				<g>
					<circle style="fill:#F25A3E;" cx="150.296" cy="5.196" r="2.05"/>
					<circle style="fill:#F25A3E;" cx="163.652" cy="5.196" r="2.05"/>
					<path style="fill:#F25A3E;" d="M179.057,5.196c0,1.132-0.918,2.05-2.05,2.05c-1.132,0-2.05-0.918-2.05-2.05
						s0.918-2.05,2.05-2.05C178.139,3.146,179.057,4.064,179.057,5.196z"/>
					<path style="fill:#F25A3E;" d="M192.412,5.196c0,1.132-0.918,2.05-2.05,2.05c-1.132,0-2.05-0.918-2.05-2.05
						s0.918-2.05,2.05-2.05C191.494,3.146,192.412,4.064,192.412,5.196z"/>
					<circle style="fill:#F25A3E;" cx="203.717" cy="5.196" r="2.05"/>
					<circle style="fill:#F25A3E;" cx="217.073" cy="5.196" r="2.05"/>
					<circle style="fill:#F25A3E;" cx="230.428" cy="5.196" r="2.05"/>
				</g>
				<g>
					<circle style="fill:#F25A3E;" cx="150.296" cy="19.297" r="2.05"/>
					<circle style="fill:#F25A3E;" cx="163.652" cy="19.297" r="2.05"/>
					<path style="fill:#F25A3E;" d="M179.057,19.297c0,1.132-0.918,2.05-2.05,2.05c-1.132,0-2.05-0.918-2.05-2.05
						c0-1.132,0.918-2.05,2.05-2.05C178.139,17.247,179.057,18.165,179.057,19.297z"/>
					<path style="fill:#F25A3E;" d="M192.412,19.297c0,1.132-0.918,2.05-2.05,2.05c-1.132,0-2.05-0.918-2.05-2.05
						c0-1.132,0.918-2.05,2.05-2.05C191.494,17.247,192.412,18.165,192.412,19.297z"/>
					<circle style="fill:#F25A3E;" cx="203.717" cy="19.297" r="2.05"/>
					<circle style="fill:#F25A3E;" cx="217.073" cy="19.297" r="2.05"/>
					<circle style="fill:#F25A3E;" cx="230.428" cy="19.297" r="2.05"/>
				</g>
				<g>
					<circle style="fill:#F25A3E;" cx="150.296" cy="33.398" r="2.05"/>
					<circle style="fill:#F25A3E;" cx="163.652" cy="33.398" r="2.05"/>
					<path style="fill:#F25A3E;" d="M179.057,33.398c0,1.132-0.918,2.05-2.05,2.05c-1.132,0-2.05-0.918-2.05-2.05
						c0-1.132,0.918-2.05,2.05-2.05C178.139,31.348,179.057,32.265,179.057,33.398z"/>
					<path style="fill:#F25A3E;" d="M192.412,33.398c0,1.132-0.918,2.05-2.05,2.05c-1.132,0-2.05-0.918-2.05-2.05
						c0-1.132,0.918-2.05,2.05-2.05C191.494,31.348,192.412,32.265,192.412,33.398z"/>
					<circle style="fill:#F25A3E;" cx="203.717" cy="33.398" r="2.05"/>
					<circle style="fill:#F25A3E;" cx="217.073" cy="33.398" r="2.05"/>
					<circle style="fill:#F25A3E;" cx="230.428" cy="33.398" r="2.05"/>
				</g>
				<g>
					<circle style="fill:#F25A3E;" cx="150.296" cy="47.498" r="2.05"/>
					<circle style="fill:#F25A3E;" cx="163.652" cy="47.498" r="2.05"/>
					<path style="fill:#F25A3E;" d="M179.057,47.498c0,1.132-0.918,2.05-2.05,2.05c-1.132,0-2.05-0.918-2.05-2.05
						c0-1.132,0.918-2.05,2.05-2.05C178.139,45.448,179.057,46.366,179.057,47.498z"/>
					<path style="fill:#F25A3E;" d="M192.412,47.498c0,1.132-0.918,2.05-2.05,2.05c-1.132,0-2.05-0.918-2.05-2.05
						c0-1.132,0.918-2.05,2.05-2.05C191.494,45.448,192.412,46.366,192.412,47.498z"/>
					<circle style="fill:#F25A3E;" cx="203.717" cy="47.498" r="2.05"/>
					<circle style="fill:#F25A3E;" cx="217.073" cy="47.498" r="2.05"/>
					<circle style="fill:#F25A3E;" cx="230.428" cy="47.498" r="2.05"/>
				</g>
				<g>
					<circle style="fill:#F25A3E;" cx="150.296" cy="61.599" r="2.05"/>
					<circle style="fill:#F25A3E;" cx="163.652" cy="61.599" r="2.05"/>
					<path style="fill:#F25A3E;" d="M179.057,61.599c0,1.132-0.918,2.05-2.05,2.05c-1.132,0-2.05-0.918-2.05-2.05
						s0.918-2.05,2.05-2.05C178.139,59.549,179.057,60.467,179.057,61.599z"/>
					<path style="fill:#F25A3E;" d="M192.412,61.599c0,1.132-0.918,2.05-2.05,2.05c-1.132,0-2.05-0.918-2.05-2.05
						s0.918-2.05,2.05-2.05C191.494,59.549,192.412,60.467,192.412,61.599z"/>
					<circle style="fill:#F25A3E;" cx="203.717" cy="61.599" r="2.05"/>
					<circle style="fill:#F25A3E;" cx="217.073" cy="61.599" r="2.05"/>
					<circle style="fill:#F25A3E;" cx="230.428" cy="61.599" r="2.05"/>
				</g>
				<g>
					<path style="fill:#F25A3E;" d="M152.346,75.7c0,1.132-0.918,2.05-2.05,2.05c-1.132,0-2.05-0.918-2.05-2.05
						c0-1.132,0.918-2.05,2.05-2.05C151.428,73.65,152.346,74.567,152.346,75.7z"/>
					<path style="fill:#F25A3E;" d="M165.702,75.7c0,1.132-0.918,2.05-2.05,2.05c-1.132,0-2.05-0.918-2.05-2.05
						c0-1.132,0.918-2.05,2.05-2.05C164.784,73.65,165.702,74.567,165.702,75.7z"/>
					<path style="fill:#F25A3E;" d="M179.057,75.7c0,1.132-0.918,2.05-2.05,2.05c-1.132,0-2.05-0.918-2.05-2.05
						c0-1.132,0.918-2.05,2.05-2.05C178.139,73.65,179.057,74.567,179.057,75.7z"/>
					<path style="fill:#F25A3E;" d="M192.412,75.7c0,1.132-0.918,2.05-2.05,2.05c-1.132,0-2.05-0.918-2.05-2.05
						c0-1.132,0.918-2.05,2.05-2.05C191.494,73.65,192.412,74.567,192.412,75.7z"/>
					<path style="fill:#F25A3E;" d="M205.767,75.7c0,1.132-0.918,2.05-2.05,2.05c-1.132,0-2.05-0.918-2.05-2.05
						c0-1.132,0.918-2.05,2.05-2.05C204.85,73.65,205.767,74.567,205.767,75.7z"/>
					<path style="fill:#F25A3E;" d="M219.123,75.7c0,1.132-0.918,2.05-2.05,2.05c-1.132,0-2.05-0.918-2.05-2.05
						c0-1.132,0.918-2.05,2.05-2.05C218.205,73.65,219.123,74.567,219.123,75.7z"/>
					<path style="fill:#F25A3E;" d="M232.478,75.7c0,1.132-0.918,2.05-2.05,2.05s-2.05-0.918-2.05-2.05
						c0-1.132,0.918-2.05,2.05-2.05S232.478,74.567,232.478,75.7z"/>
				</g>
				<g>
					<path style="fill:#F25A3E;" d="M152.346,89.8c0,1.132-0.918,2.05-2.05,2.05c-1.132,0-2.05-0.918-2.05-2.05
						c0-1.132,0.918-2.05,2.05-2.05C151.428,87.751,152.346,88.668,152.346,89.8z"/>
					<path style="fill:#F25A3E;" d="M165.702,89.8c0,1.132-0.918,2.05-2.05,2.05c-1.132,0-2.05-0.918-2.05-2.05
						c0-1.132,0.918-2.05,2.05-2.05C164.784,87.751,165.702,88.668,165.702,89.8z"/>
					<path style="fill:#F25A3E;" d="M179.057,89.8c0,1.132-0.918,2.05-2.05,2.05c-1.132,0-2.05-0.918-2.05-2.05
						c0-1.132,0.918-2.05,2.05-2.05C178.139,87.751,179.057,88.668,179.057,89.8z"/>
					<path style="fill:#F25A3E;" d="M192.412,89.8c0,1.132-0.918,2.05-2.05,2.05c-1.132,0-2.05-0.918-2.05-2.05
						c0-1.132,0.918-2.05,2.05-2.05C191.494,87.751,192.412,88.668,192.412,89.8z"/>
					<path style="fill:#F25A3E;" d="M205.767,89.8c0,1.132-0.918,2.05-2.05,2.05c-1.132,0-2.05-0.918-2.05-2.05
						c0-1.132,0.918-2.05,2.05-2.05C204.85,87.751,205.767,88.668,205.767,89.8z"/>
					<path style="fill:#F25A3E;" d="M219.123,89.8c0,1.132-0.918,2.05-2.05,2.05c-1.132,0-2.05-0.918-2.05-2.05
						c0-1.132,0.918-2.05,2.05-2.05C218.205,87.751,219.123,88.668,219.123,89.8z"/>
					<path style="fill:#F25A3E;" d="M232.478,89.8c0,1.132-0.918,2.05-2.05,2.05s-2.05-0.918-2.05-2.05
						c0-1.132,0.918-2.05,2.05-2.05S232.478,88.668,232.478,89.8z"/>
				</g>
			</g>
			<g>
				<polygon style="fill:none;stroke:#F25A3E;stroke-width:2;stroke-miterlimit:10;" points="90.913,224.394 106.212,226.245 
					103.592,211.715 				"/>
				<polygon style="fill:none;stroke:#F25A3E;stroke-width:2;stroke-miterlimit:10;" points="99.719,233.201 115.019,235.052 
					112.399,220.521 				"/>
				<polygon style="fill:none;stroke:#F25A3E;stroke-width:2;stroke-miterlimit:10;" points="108.526,242.007 123.826,243.859 
					121.205,229.328 				"/>
				<polygon style="fill:none;stroke:#F25A3E;stroke-width:2;stroke-miterlimit:10;" points="117.333,250.814 132.633,252.665 
					130.012,238.135 				"/>
				<polygon style="fill:none;stroke:#F25A3E;stroke-width:2;stroke-miterlimit:10;" points="126.14,259.621 141.439,261.472 
					138.819,246.942 				"/>
				<polygon style="fill:none;stroke:#F25A3E;stroke-width:2;stroke-miterlimit:10;" points="134.946,268.428 150.246,270.279 
					147.626,255.748 				"/>
			</g>
			<g>
				<polygon style="fill:none;stroke:#F25A3E;stroke-width:2;stroke-miterlimit:10;" points="626.991,23.885 642.291,25.736 
					639.67,11.205 				"/>
				<polygon style="fill:none;stroke:#F25A3E;stroke-width:2;stroke-miterlimit:10;" points="635.798,32.691 651.097,34.542 
					648.477,20.012 				"/>
				<polygon style="fill:none;stroke:#F25A3E;stroke-width:2;stroke-miterlimit:10;" points="644.605,41.498 659.904,43.349 
					657.284,28.819 				"/>
				<polygon style="fill:none;stroke:#F25A3E;stroke-width:2;stroke-miterlimit:10;" points="653.411,50.305 668.711,52.156 
					666.091,37.625 				"/>
				<polygon style="fill:none;stroke:#F25A3E;stroke-width:2;stroke-miterlimit:10;" points="662.218,59.111 677.518,60.963 
					674.897,46.432 				"/>
				<polygon style="fill:none;stroke:#F25A3E;stroke-width:2;stroke-miterlimit:10;" points="671.025,67.918 686.324,69.769 
					683.704,55.239 				"/>
			</g>
			<line style="fill:none;stroke:#F7C0B7;stroke-miterlimit:10;" x1="-185.708" y1="191.608" x2="-117.986" y2="191.608"/>
			<line style="fill:none;stroke:#F7C0B7;stroke-miterlimit:10;" x1="-185.708" y1="196.436" x2="-160.602" y2="196.436"/>
			<g>
				
					<line style="fill:none;stroke:#F7C0B7;stroke-width:2;stroke-miterlimit:10;" x1="693.2" y1="117.741" x2="759.912" y2="118.452"/>
				
					<line style="fill:none;stroke:#F7C0B7;stroke-width:2;stroke-miterlimit:10;" x1="698.967" y1="122.51" x2="758.654" y2="123.147"/>
				
					<line style="fill:none;stroke:#F7C0B7;stroke-width:2;stroke-miterlimit:10;" x1="705.099" y1="127.284" x2="757.396" y2="127.841"/>
				
					<line style="fill:none;stroke:#F7C0B7;stroke-width:2;stroke-miterlimit:10;" x1="714.502" y1="132.092" x2="756.138" y2="132.536"/>
				
					<line style="fill:none;stroke:#F7C0B7;stroke-width:2;stroke-miterlimit:10;" x1="725.517" y1="136.917" x2="754.88" y2="137.23"/>
				
					<line style="fill:none;stroke:#F7C0B7;stroke-width:2;stroke-miterlimit:10;" x1="734.408" y1="141.719" x2="753.622" y2="141.924"/>
			</g>
			<g>
				
					<line style="fill:none;stroke:#F7C0B7;stroke-width:2;stroke-miterlimit:10;" x1="-9.779" y1="229.475" x2="70.353" y2="229.475"/>
				<g>
					
						<line style="fill:none;stroke:#F7C0B7;stroke-width:2;stroke-miterlimit:10;" x1="-9.779" y1="224.608" x2="53.025" y2="224.608"/>
					
						<line style="fill:none;stroke:#F7C0B7;stroke-width:2;stroke-miterlimit:10;" x1="-9.779" y1="219.74" x2="40.333" y2="219.74"/>
					
						<line style="fill:none;stroke:#F7C0B7;stroke-width:2;stroke-miterlimit:10;" x1="-9.779" y1="214.873" x2="20.262" y2="214.873"/>
					
						<line style="fill:none;stroke:#F7C0B7;stroke-width:2;stroke-miterlimit:10;" x1="-9.779" y1="210.006" x2="6.684" y2="210.006"/>
				</g>
			</g>
			<g>
				
					<line style="fill:none;stroke:#F7C0B7;stroke-width:2;stroke-miterlimit:10;" x1="213.254" y1="103.065" x2="213.254" y2="178.756"/>
				
					<line style="fill:none;stroke:#F7C0B7;stroke-width:2;stroke-miterlimit:10;" x1="208.619" y1="111.726" x2="208.619" y2="178.756"/>
				
					<line style="fill:none;stroke:#F7C0B7;stroke-width:2;stroke-miterlimit:10;" x1="203.985" y1="124.016" x2="203.985" y2="178.756"/>
				
					<line style="fill:none;stroke:#F7C0B7;stroke-width:2;stroke-miterlimit:10;" x1="199.35" y1="138.479" x2="199.35" y2="178.756"/>
				
					<line style="fill:none;stroke:#F7C0B7;stroke-width:2;stroke-miterlimit:10;" x1="194.715" y1="151.675" x2="194.715" y2="178.756"/>
				
					<line style="fill:none;stroke:#F7C0B7;stroke-width:2;stroke-miterlimit:10;" x1="190.081" y1="163.305" x2="190.081" y2="178.756"/>
			</g>
			<g>
				
					<ellipse transform="matrix(0.9239 -0.3827 0.3827 0.9239 -37.5944 24.0232)" style="fill:none;stroke:#F7C0B7;stroke-width:2;stroke-miterlimit:10;" cx="41.589" cy="106.511" rx="18.806" ry="18.806"/>
				
					<line style="fill:none;stroke:#F7C0B7;stroke-width:2;stroke-miterlimit:10;" x1="41.589" y1="85.066" x2="41.589" y2="128.657"/>
				
					<line style="fill:none;stroke:#F7C0B7;stroke-width:2;stroke-miterlimit:10;" x1="19.334" y1="106.861" x2="62.925" y2="106.861"/>
			</g>
			<g>
				
					<ellipse transform="matrix(0.2197 -0.9756 0.9756 0.2197 -20.1475 909.3646)" style="fill:none;stroke:#F7C0B7;stroke-width:2;stroke-miterlimit:10;" cx="558.411" cy="467.277" rx="18.806" ry="18.806"/>
				
					<line style="fill:none;stroke:#F7C0B7;stroke-width:2;stroke-miterlimit:10;" x1="558.411" y1="445.832" x2="558.411" y2="489.423"/>
				
					<line style="fill:none;stroke:#F7C0B7;stroke-width:2;stroke-miterlimit:10;" x1="536.155" y1="467.627" x2="579.747" y2="467.627"/>
			</g>
			
				<polygon style="fill:#F7C0B7;stroke:#F7C0B7;stroke-width:2;stroke-linecap:round;stroke-linejoin:round;stroke-miterlimit:10;" points="
				140.082,14.547 91.68,98.381 188.484,98.381 			"/>
			<g>
				<path style="fill:none;stroke:#F7C0B7;stroke-width:2;stroke-linecap:round;stroke-linejoin:round;stroke-miterlimit:10;" d="
					M188.484,98.381c0,26.731-21.67,48.402-48.401,48.402c-26.732,0-48.402-21.67-48.402-48.402"/>
				<path style="fill:none;stroke:#F7C0B7;stroke-width:2;stroke-linecap:round;stroke-linejoin:round;stroke-miterlimit:10;" d="
					M182.893,98.381c0,23.375-18.949,42.324-42.323,42.324s-42.323-18.949-42.323-42.324"/>
				<path style="fill:none;stroke:#F7C0B7;stroke-width:2;stroke-linecap:round;stroke-linejoin:round;stroke-miterlimit:10;" d="
					M176.281,98.381c0,19.735-15.999,35.734-35.734,35.734s-35.734-15.999-35.734-35.734"/>
				<path style="fill:none;stroke:#F7C0B7;stroke-width:2;stroke-linecap:round;stroke-linejoin:round;stroke-miterlimit:10;" d="
					M169.934,98.381c0,16.11-13.06,29.17-29.17,29.17c-16.11,0-29.17-13.06-29.17-29.17"/>
				<path style="fill:none;stroke:#F7C0B7;stroke-width:2;stroke-linecap:round;stroke-linejoin:round;stroke-miterlimit:10;" d="
					M163.68,98.381c0,12.618-10.229,22.848-22.847,22.848c-12.618,0-22.848-10.229-22.848-22.848"/>
				<path style="fill:none;stroke:#F7C0B7;stroke-width:2;stroke-linecap:round;stroke-linejoin:round;stroke-miterlimit:10;" d="
					M157.347,98.381c0,9.147-7.415,16.563-16.563,16.563s-16.563-7.415-16.563-16.563"/>
				<path style="fill:none;stroke:#F7C0B7;stroke-width:2;stroke-linecap:round;stroke-linejoin:round;stroke-miterlimit:10;" d="
					M151.123,98.381c0,5.66-4.589,10.249-10.249,10.249c-5.66,0-10.249-4.589-10.249-10.249"/>
				<path style="fill:none;stroke:#F7C0B7;stroke-width:2;stroke-linecap:round;stroke-linejoin:round;stroke-miterlimit:10;" d="
					M145.035,98.381c0,2.261-1.833,4.093-4.093,4.093c-2.26,0-4.093-1.832-4.093-4.093"/>
			</g>
			<g>
				<path style="fill:none;stroke:#F7C0B7;stroke-width:2;stroke-linecap:round;stroke-linejoin:round;stroke-miterlimit:10;" d="
					M750.756,447.647c-26.731,0-48.401-21.67-48.401-48.401c0-26.732,21.67-48.402,48.401-48.402"/>
				<path style="fill:none;stroke:#F7C0B7;stroke-width:2;stroke-linecap:round;stroke-linejoin:round;stroke-miterlimit:10;" d="
					M750.756,442.056c-23.375,0-42.323-18.949-42.323-42.323s18.949-42.323,42.323-42.323"/>
				<path style="fill:none;stroke:#F7C0B7;stroke-width:2;stroke-linecap:round;stroke-linejoin:round;stroke-miterlimit:10;" d="
					M750.756,435.445c-19.735,0-35.734-15.999-35.734-35.734c0-19.735,15.999-35.734,35.734-35.734"/>
				<path style="fill:none;stroke:#F7C0B7;stroke-width:2;stroke-linecap:round;stroke-linejoin:round;stroke-miterlimit:10;" d="
					M750.756,429.098c-16.11,0-29.17-13.06-29.17-29.17c0-16.11,13.06-29.17,29.17-29.17"/>
				<path style="fill:none;stroke:#F7C0B7;stroke-width:2;stroke-linecap:round;stroke-linejoin:round;stroke-miterlimit:10;" d="
					M750.756,422.844c-12.618,0-22.847-10.229-22.847-22.847c0-12.618,10.229-22.848,22.847-22.848"/>
				<path style="fill:none;stroke:#F7C0B7;stroke-width:2;stroke-linecap:round;stroke-linejoin:round;stroke-miterlimit:10;" d="
					M750.756,416.51c-9.147,0-16.563-7.415-16.563-16.563s7.415-16.563,16.563-16.563"/>
				<path style="fill:none;stroke:#F7C0B7;stroke-width:2;stroke-linecap:round;stroke-linejoin:round;stroke-miterlimit:10;" d="
					M750.756,410.287c-5.66,0-10.249-4.589-10.249-10.249c0-5.66,4.589-10.249,10.249-10.249"/>
				<path style="fill:none;stroke:#F7C0B7;stroke-width:2;stroke-linecap:round;stroke-linejoin:round;stroke-miterlimit:10;" d="
					M750.756,404.199c-2.26,0-4.093-1.832-4.093-4.093c0-2.26,1.832-4.093,4.093-4.093"/>
			</g>
			<g>
				<polyline style="fill:none;stroke:#F7C0B7;stroke-width:2;stroke-miterlimit:10;" points="581.183,73.772 591.047,63.909 
					601.606,74.467 611.322,64.751 620.698,74.128 630.73,64.097 640.683,74.05 				"/>
				<polyline style="fill:none;stroke:#F7C0B7;stroke-width:2;stroke-miterlimit:10;" points="581.183,79.698 591.047,69.834 
					601.606,80.393 611.322,70.677 620.698,80.054 630.73,70.022 640.683,79.976 				"/>
				<polyline style="fill:none;stroke:#F7C0B7;stroke-width:2;stroke-miterlimit:10;" points="581.183,85.623 591.047,75.76 
					601.606,86.319 611.322,76.603 620.698,85.979 630.73,75.948 640.683,85.901 				"/>
			</g>
			<g>
				<polyline style="fill:none;stroke:#F7C0B7;stroke-width:2;stroke-miterlimit:10;" points="92.933,427.772 107.785,442.624 
					91.886,458.523 106.516,473.152 92.397,487.272 107.502,502.376 92.515,517.363 				"/>
				<polyline style="fill:none;stroke:#F7C0B7;stroke-width:2;stroke-miterlimit:10;" points="84.01,427.772 98.862,442.624 
					82.963,458.523 97.593,473.152 83.474,487.272 98.579,502.376 83.592,517.363 				"/>
				<polyline style="fill:none;stroke:#F7C0B7;stroke-width:2;stroke-miterlimit:10;" points="75.088,427.772 89.94,442.624 
					74.041,458.523 88.67,473.152 74.552,487.272 89.656,502.376 74.669,517.363 				"/>
			</g>
			<g>
				<path style="fill:#F25A3E;" d="M213.2,80.626h-44.632c-6.082,0-11.013-4.931-11.013-11.013l0,0
					c0-6.082,4.93-11.013,11.013-11.013H213.2c6.082,0,11.013,4.931,11.013,11.013l0,0C224.213,75.696,219.282,80.626,213.2,80.626z
					"/>
				<g>
					
						<rect x="166.747" y="66.468" transform="matrix(0.7071 0.7071 -0.7071 0.7071 98.9465 -99.7271)" style="fill:#F7C0B7;" width="6.216" height="6.216"/>
					
						<rect x="180.766" y="66.468" transform="matrix(0.7071 0.7071 -0.7071 0.7071 103.0528 -109.6404)" style="fill:#F7C0B7;" width="6.216" height="6.216"/>
					
						<rect x="194.786" y="66.468" transform="matrix(0.7071 0.7071 -0.7071 0.7071 107.159 -119.5537)" style="fill:#F7C0B7;" width="6.216" height="6.216"/>
					
						<rect x="208.805" y="66.468" transform="matrix(0.7071 0.7071 -0.7071 0.7071 111.2653 -129.4671)" style="fill:#F7C0B7;" width="6.216" height="6.216"/>
				</g>
			</g>
			<g>
				<path style="fill:#F29587;" d="M137.843,306.038H93.211c-6.082,0-11.013-4.931-11.013-11.013l0,0
					c0-6.082,4.93-11.013,11.013-11.013h44.632c6.082,0,11.013,4.93,11.013,11.013l0,0
					C148.855,301.107,143.925,306.038,137.843,306.038z"/>
				<g>
					
						<rect x="91.389" y="291.879" transform="matrix(0.7071 0.7071 -0.7071 0.7071 236.265 19.5799)" style="fill:#F7C0B7;" width="6.216" height="6.216"/>
					
						<rect x="105.409" y="291.879" transform="matrix(0.7071 0.7071 -0.7071 0.7071 240.3712 9.6667)" style="fill:#F7C0B7;" width="6.216" height="6.216"/>
					
						<rect x="119.428" y="291.879" transform="matrix(0.7071 0.7071 -0.7071 0.7071 244.4774 -0.2466)" style="fill:#F7C0B7;" width="6.216" height="6.216"/>
					
						<rect x="133.448" y="291.879" transform="matrix(0.7071 0.7071 -0.7071 0.7071 248.5836 -10.16)" style="fill:#F7C0B7;" width="6.216" height="6.216"/>
				</g>
			</g>
			<g>
				<path style="fill:#F25A3E;" d="M200.901,450.088v-44.632c0-6.082,4.93-11.013,11.013-11.013l0,0
					c6.082,0,11.013,4.93,11.013,11.013v44.632c0,6.082-4.931,11.013-11.013,11.013l0,0
					C205.831,461.101,200.901,456.17,200.901,450.088z"/>
				<g>
					
						<rect x="208.843" y="403.635" transform="matrix(-0.7071 0.7071 -0.7071 -0.7071 649.4341 544.4808)" style="fill:#F2F2F2;" width="6.216" height="6.216"/>
					
						<rect x="208.843" y="417.654" transform="matrix(-0.7071 0.7071 -0.7071 -0.7071 659.3474 568.4136)" style="fill:#F2F2F2;" width="6.216" height="6.216"/>
					
						<rect x="208.843" y="431.674" transform="matrix(-0.7071 0.7071 -0.7071 -0.7071 669.2607 592.3463)" style="fill:#F2F2F2;" width="6.216" height="6.216"/>
					
						<rect x="208.843" y="445.693" transform="matrix(-0.7071 0.7071 -0.7071 -0.7071 679.174 616.2793)" style="fill:#F2F2F2;" width="6.216" height="6.216"/>
				</g>
			</g>
			<g>
				<polygon style="fill:#F25A3E;" points="124.557,314.039 119.869,322.158 129.245,322.158 				"/>
				<polygon style="fill:#F25A3E;" points="133.99,322.158 129.302,314.039 138.677,314.039 				"/>
			</g>
			<g>
				<polygon style="fill:#F25A3E;" points="670.199,234.075 665.511,242.195 674.887,242.195 				"/>
				<polygon style="fill:#F25A3E;" points="679.632,242.195 674.944,234.075 684.319,234.075 				"/>
			</g>
			<g>
				<polygon style="fill:#F25A3E;" points="608.417,176.413 600.298,171.725 600.298,181.1 				"/>
				<polygon style="fill:#F25A3E;" points="600.298,185.845 608.417,181.158 608.417,190.533 				"/>
			</g>
			<g>
				<polygon style="fill:#FAD5CF;" points="608.417,155.494 600.298,150.806 600.298,160.182 				"/>
				<polygon style="fill:#FAD5CF;" points="600.298,164.927 608.417,160.239 608.417,169.614 				"/>
			</g>
			<g>
				<polygon style="fill:#FAD5CF;" points="81.172,125.088 73.053,120.4 73.053,129.776 				"/>
				<polygon style="fill:#FAD5CF;" points="73.053,134.521 81.172,129.833 81.172,139.208 				"/>
			</g>
			<g>
				<polygon style="fill:#F29587;" points="217.314,203.629 209.195,198.941 209.195,208.317 				"/>
				<polygon style="fill:#F29587;" points="209.195,213.062 217.314,208.374 217.314,217.749 				"/>
			</g>
			<circle style="fill:none;stroke:#F25A3E;stroke-width:6;stroke-miterlimit:10;" cx="558.489" cy="412.177" r="15.658"/>
			<circle style="fill:none;stroke:#FAD5CF;stroke-width:6;stroke-miterlimit:10;" cx="45.945" cy="430.266" r="15.658"/>
			<circle style="fill:none;stroke:#FAD5CF;stroke-width:6;stroke-miterlimit:10;" cx="670.515" cy="385.969" r="15.658"/>
			<circle style="fill:none;stroke:#F2F2F2;stroke-width:4;stroke-miterlimit:10;" cx="135.75" cy="365.975" r="6.688"/>
			<g>
				<circle style="fill:#F25A3E;" cx="671.025" cy="438.01" r="21.162"/>
				<g>
					
						<rect x="616.47" y="470.63" transform="matrix(6.123234e-17 -1 1 6.123234e-17 179.236 1121.823)" style="fill:#F25A3E;" width="68.119" height="1.327"/>
					
						<rect x="620.534" y="470.63" transform="matrix(6.123234e-17 -1 1 6.123234e-17 183.3003 1125.8873)" style="fill:#F25A3E;" width="68.119" height="1.327"/>
					
						<rect x="624.599" y="470.63" transform="matrix(6.123234e-17 -1 1 6.123234e-17 187.3646 1129.9515)" style="fill:#F25A3E;" width="68.119" height="1.327"/>
					
						<rect x="628.663" y="470.63" transform="matrix(6.123234e-17 -1 1 6.123234e-17 191.4289 1134.0159)" style="fill:#F25A3E;" width="68.119" height="1.327"/>
					
						<rect x="632.727" y="470.63" transform="matrix(6.123234e-17 -1 1 6.123234e-17 195.4932 1138.0802)" style="fill:#F25A3E;" width="68.119" height="1.327"/>
					
						<rect x="636.791" y="470.63" transform="matrix(6.123234e-17 -1 1 6.123234e-17 199.5575 1142.1445)" style="fill:#F25A3E;" width="68.119" height="1.327"/>
					
						<rect x="640.856" y="470.63" transform="matrix(6.123234e-17 -1 1 6.123234e-17 203.6218 1146.2087)" style="fill:#F25A3E;" width="68.119" height="1.327"/>
					
						<rect x="644.92" y="470.63" transform="matrix(6.123234e-17 -1 1 6.123234e-17 207.6861 1150.2731)" style="fill:#F25A3E;" width="68.119" height="1.327"/>
					
						<rect x="648.984" y="470.63" transform="matrix(6.123234e-17 -1 1 6.123234e-17 211.7503 1154.3373)" style="fill:#F25A3E;" width="68.119" height="1.327"/>
					
						<rect x="653.049" y="470.63" transform="matrix(6.123234e-17 -1 1 6.123234e-17 215.8146 1158.4016)" style="fill:#F25A3E;" width="68.119" height="1.327"/>
					
						<rect x="657.113" y="470.63" transform="matrix(6.123234e-17 -1 1 6.123234e-17 219.8789 1162.4659)" style="fill:#F25A3E;" width="68.119" height="1.327"/>
				</g>
			</g>
			
				<ellipse transform="matrix(0.0867 -0.9962 0.9962 0.0867 176.0425 1068.041)" style="fill:none;stroke:#F2F2F2;stroke-width:4;stroke-miterlimit:10;" cx="670.515" cy="438.01" rx="6.688" ry="6.688"/>
			<circle style="fill:none;stroke:#F25A3E;stroke-width:6;stroke-miterlimit:10;" cx="129.062" cy="163.96" r="6.688"/>
			<circle style="fill:#F29587;" cx="671.025" cy="385.969" r="6.688"/>
			<path style="fill:none;stroke:#F25A3E;stroke-width:6;stroke-miterlimit:10;" d="M739.51,259.094
				c0,3.693-2.994,6.688-6.688,6.688c-3.693,0-6.688-2.994-6.688-6.688c0-3.693,2.994-6.688,6.688-6.688
				C736.516,252.407,739.51,255.401,739.51,259.094z"/>
			<g>
				<rect x="586.59" y="264.539" style="fill:#F7C0B7;" width="101.389" height="94.601"/>
				
					<ellipse transform="matrix(0.9283 -0.3718 0.3718 0.9283 -66.5043 278.1278)" style="fill:#F25A3E;" cx="687.979" cy="311.52" rx="47.619" ry="47.619"/>
				<g>
					<path style="fill:none;stroke:#F7C0B7;stroke-width:2;stroke-linecap:round;stroke-linejoin:round;stroke-miterlimit:10;" d="
						M592.365,345.813h36.526h60.96c19.38,0,35.091-15.711,35.091-35.091c0-19.38-15.711-35.091-35.091-35.091h-80.403h-17.083"/>
					<path style="fill:none;stroke:#F7C0B7;stroke-width:2;stroke-linecap:round;stroke-linejoin:round;stroke-miterlimit:10;" d="
						M602.865,341.053h86.986c16.946,0,30.684-13.738,30.684-30.684c0-16.946-13.738-30.684-30.684-30.684H595.4"/>
					<path style="fill:none;stroke:#F7C0B7;stroke-width:2;stroke-linecap:round;stroke-linejoin:round;stroke-miterlimit:10;" d="
						M600.377,336.292h89.475c14.308,0,25.907-11.599,25.907-25.907c0-14.308-11.599-25.907-25.907-25.907h-89.475"/>
					<path style="fill:none;stroke:#F7C0B7;stroke-width:2;stroke-linecap:round;stroke-linejoin:round;stroke-miterlimit:10;" d="
						M609.123,289.079h80.728c11.68,0,21.148,9.468,21.148,21.148c0,11.68-9.468,21.148-21.148,21.148h-83.005"/>
					<path style="fill:none;stroke:#F7C0B7;stroke-width:2;stroke-linecap:round;stroke-linejoin:round;stroke-miterlimit:10;" d="
						M612.818,293.614h77.033c9.148,0,16.564,7.416,16.564,16.564c0,9.148-7.416,16.564-16.564,16.564h-77.033"/>
					<path style="fill:none;stroke:#F7C0B7;stroke-width:2;stroke-linecap:round;stroke-linejoin:round;stroke-miterlimit:10;" d="
						M618.79,298.205h71.061c6.632,0,12.008,5.376,12.008,12.008c0,6.632-5.376,12.008-12.008,12.008H618.79"/>
					<path style="fill:none;stroke:#F7C0B7;stroke-width:2;stroke-linecap:round;stroke-linejoin:round;stroke-miterlimit:10;" d="
						M612.818,302.717h77.033c4.104,0,7.43,3.327,7.43,7.43c0,4.104-3.327,7.43-7.43,7.43h-85.493"/>
					<path style="fill:none;stroke:#F7C0B7;stroke-width:2;stroke-linecap:round;stroke-linejoin:round;stroke-miterlimit:10;" d="
						M616.302,307.131h73.55c1.639,0,2.967,1.328,2.967,2.967c0,1.639-1.328,2.967-2.967,2.967h-77.033"/>
				</g>
				<polygon style="fill:#F29587;" points="690.507,310.222 753.146,346.386 753.146,274.057 				"/>
				<polygon style="fill:#FAD5CF;" points="586.59,359.14 640.359,311.52 687.979,359.14 				"/>
				<polygon style="fill:#F2F2F2;" points="609.123,350.911 638.911,324.531 665.291,350.911 				"/>
				<polygon style="fill:#F29587;" points="586.59,264.539 640.359,311.52 687.979,263.901 				"/>
				<polygon style="fill:#F2F2F2;" points="609.448,273.253 639.236,299.634 665.617,273.253 				"/>
				
					<polygon style="fill:none;stroke:#F7C0B7;stroke-width:2;stroke-linecap:round;stroke-linejoin:round;stroke-miterlimit:10;" points="
					620.796,277.525 655.81,277.525 639.26,294.075 				"/>
				
					<polygon style="fill:none;stroke:#F7C0B7;stroke-width:2;stroke-linecap:round;stroke-linejoin:round;stroke-miterlimit:10;" points="
					620.796,347.263 655.81,347.263 639.26,330.714 				"/>
			</g>
			<path style="fill:#F25A3E;" d="M64.407,507.819H31.025c-24.161,0-43.747-19.586-43.747-43.747v-46.077h33.381
				c24.161,0,43.747,19.586,43.747,43.747V507.819z"/>
			<g>
				
					<polygon style="fill:none;stroke:#F7C0B7;stroke-width:2;stroke-linecap:round;stroke-linejoin:round;stroke-miterlimit:10;" points="
					174.475,241.61 198.357,255.167 221.313,241.61 197.894,227.762 				"/>
				
					<polygon style="fill:none;stroke:#F7C0B7;stroke-width:2;stroke-linecap:round;stroke-linejoin:round;stroke-miterlimit:10;" points="
					174.475,259.24 198.357,272.797 221.313,259.24 197.894,245.392 				"/>
				
					<polygon style="fill:none;stroke:#F7C0B7;stroke-width:2;stroke-linecap:round;stroke-linejoin:round;stroke-miterlimit:10;" points="
					174.475,276.87 198.357,290.427 221.313,276.87 197.894,263.022 				"/>
				
					<polygon style="fill:none;stroke:#F7C0B7;stroke-width:2;stroke-linecap:round;stroke-linejoin:round;stroke-miterlimit:10;" points="
					174.475,294.5 198.357,308.057 221.313,294.5 197.894,280.652 				"/>
				
					<polygon style="fill:none;stroke:#F7C0B7;stroke-width:2;stroke-linecap:round;stroke-linejoin:round;stroke-miterlimit:10;" points="
					174.475,312.131 198.357,325.688 221.313,312.131 197.894,298.282 				"/>
				
					<polygon style="fill:none;stroke:#F7C0B7;stroke-width:2;stroke-linecap:round;stroke-linejoin:round;stroke-miterlimit:10;" points="
					174.475,329.761 198.357,343.318 221.313,329.761 197.894,315.912 				"/>
				
					<polyline style="fill:none;stroke:#F7C0B7;stroke-width:2;stroke-linecap:round;stroke-linejoin:round;stroke-miterlimit:10;" points="
					174.475,241.61 174.475,329.761 198.357,343.318 221.313,329.761 221.313,241.61 				"/>
				
					<line style="fill:none;stroke:#F7C0B7;stroke-width:2;stroke-linecap:round;stroke-linejoin:round;stroke-miterlimit:10;" x1="198.357" y1="255.167" x2="198.357" y2="343.318"/>
			</g>
			<g>
				
					<polygon style="fill:none;stroke:#F7C0B7;stroke-width:2;stroke-linecap:round;stroke-linejoin:round;stroke-miterlimit:10;" points="
					592.264,386.336 616.146,399.893 639.102,386.336 615.683,372.487 				"/>
				
					<polygon style="fill:none;stroke:#F7C0B7;stroke-width:2;stroke-linecap:round;stroke-linejoin:round;stroke-miterlimit:10;" points="
					592.264,403.966 616.146,417.523 639.102,403.966 615.683,390.118 				"/>
				
					<polygon style="fill:none;stroke:#F7C0B7;stroke-width:2;stroke-linecap:round;stroke-linejoin:round;stroke-miterlimit:10;" points="
					592.264,421.596 616.146,435.153 639.102,421.596 615.683,407.748 				"/>
				
					<polygon style="fill:none;stroke:#F7C0B7;stroke-width:2;stroke-linecap:round;stroke-linejoin:round;stroke-miterlimit:10;" points="
					592.264,439.226 616.146,452.783 639.102,439.226 615.683,425.378 				"/>
				
					<polygon style="fill:none;stroke:#F7C0B7;stroke-width:2;stroke-linecap:round;stroke-linejoin:round;stroke-miterlimit:10;" points="
					592.264,456.857 616.146,470.414 639.102,456.857 615.683,443.008 				"/>
				
					<polygon style="fill:none;stroke:#F7C0B7;stroke-width:2;stroke-linecap:round;stroke-linejoin:round;stroke-miterlimit:10;" points="
					592.264,474.487 616.146,488.044 639.102,474.487 615.683,460.638 				"/>
				
					<polyline style="fill:none;stroke:#F7C0B7;stroke-width:2;stroke-linecap:round;stroke-linejoin:round;stroke-miterlimit:10;" points="
					592.264,386.336 592.264,474.487 616.146,488.044 639.102,474.487 639.102,386.336 				"/>
				
					<line style="fill:none;stroke:#F7C0B7;stroke-width:2;stroke-linecap:round;stroke-linejoin:round;stroke-miterlimit:10;" x1="616.146" y1="399.893" x2="616.146" y2="488.044"/>
			</g>
			<polygon style="fill:#F29587;" points="-12.722,417.994 64.407,507.819 -15.885,507.819 			"/>
			
				<ellipse transform="matrix(0.1602 -0.9871 0.9871 0.1602 -488.1213 409.5936)" style="fill:#F2F2F2;" cx="-3.351" cy="491.656" rx="24.708" ry="24.708"/>
			<g>
				<path style="fill:#F25A3E;" d="M643.355,251.809H615.56c-3.961,0-7.173-3.211-7.173-7.173v-29.982h30.871
					c2.263,0,4.097,1.834,4.097,4.097V251.809z"/>
				<polygon style="fill:#F29587;" points="608.387,214.654 643.355,251.809 606.953,251.809 				"/>
				
					<ellipse transform="matrix(0.6613 -0.7501 0.7501 0.6613 22.8489 541.3676)" style="fill:#F2F2F2;" cx="610.933" cy="245.381" rx="11.202" ry="11.202"/>
				<circle style="fill:#F25A3E;" cx="610.933" cy="245.381" r="4.415"/>
				<circle style="fill:#F2F2F2;" cx="640.359" cy="220.514" r="11.202"/>
				<circle style="fill:#F29587;" cx="640.359" cy="220.514" r="4.415"/>
			</g>
			<g>
				<polygon style="fill:#F29587;" points="188.824,355.954 185.378,365.721 188.824,375.488 179.057,372.042 169.29,375.488 
					172.736,365.721 169.29,355.954 179.057,359.4 				"/>
				<polygon style="fill:#F29587;" points="188.824,379.182 185.378,388.949 188.824,398.716 179.057,395.27 169.29,398.716 
					172.736,388.949 169.29,379.182 179.057,382.628 				"/>
				<polygon style="fill:#F29587;" points="188.824,402.41 185.378,412.177 188.824,421.944 179.057,418.498 169.29,421.944 
					172.736,412.177 169.29,402.41 179.057,405.856 				"/>
			</g>
			<g>
				<polygon style="fill:#F29587;" points="680.281,89.834 676.835,99.601 680.281,109.367 670.515,105.921 660.748,109.367 
					664.194,99.601 660.748,89.834 670.515,93.28 				"/>
				<polygon style="fill:#F29587;" points="680.281,136.29 676.835,146.057 680.281,155.824 670.515,152.378 660.748,155.824 
					664.194,146.057 660.748,136.29 670.515,139.736 				"/>
				<polygon style="fill:#F25A3E;" points="680.281,113.062 676.835,122.829 680.281,132.596 670.515,129.149 660.748,132.596 
					664.194,122.829 660.748,113.062 670.515,116.508 				"/>
			</g>
			<g>
				<path style="fill:#F29587;" d="M727.993,47.259v44.632c0,6.082-4.93,11.013-11.013,11.013l0,0
					c-6.082,0-11.013-4.931-11.013-11.013V47.259c0-6.082,4.93-11.013,11.013-11.013l0,0
					C723.063,36.247,727.993,41.177,727.993,47.259z"/>
				<g>
					
						<rect x="713.835" y="87.497" transform="matrix(0.7071 -0.7071 0.7071 0.7071 145.9204 533.4924)" style="fill:#F7C0B7;" width="6.216" height="6.216"/>
					
						<rect x="713.835" y="73.477" transform="matrix(0.7071 -0.7071 0.7071 0.7071 155.8337 529.3862)" style="fill:#F7C0B7;" width="6.216" height="6.216"/>
					
						<rect x="713.835" y="59.458" transform="matrix(0.7071 -0.7071 0.7071 0.7071 165.7417 525.2737)" style="fill:#F7C0B7;" width="6.216" height="6.216"/>
					
						<rect x="713.835" y="45.438" transform="matrix(0.7071 -0.7071 0.7071 0.7071 175.6603 521.1737)" style="fill:#F7C0B7;" width="6.216" height="6.216"/>
				</g>
			</g>
			<circle style="fill:#F25A3E;" cx="555.271" cy="14.547" r="47.33"/>
		</g>
	</g>
</g>
</svg>
